<svg width="11" height="24" viewBox="0 0 11 24" fill="none" xmlns="http://www.w3.org/2000/svg">
<path d="M4.92372 24.0002C4.53586 23.9194 4.13722 23.8736 3.76282 23.747C2.20598 23.2245 1.45179 21.9478 1.6161 20.2617C1.74539 18.9365 2.16558 17.6894 2.50496 16.4154C2.81741 15.2491 3.13792 14.0828 3.43421 12.9138C3.57427 12.359 3.62277 11.7906 3.51503 11.2196C3.42614 10.7482 3.15678 10.4573 2.68273 10.355C2.01743 10.2095 1.36562 10.2715 0.721871 10.4762C0.492924 10.5489 0.266656 10.6243 0 10.7105C0.110433 10.258 0.210107 9.84591 0.317847 9.4365C0.331314 9.38263 0.398652 9.32068 0.452522 9.29913C1.52184 8.88972 2.58038 8.43722 3.71434 8.23521C4.83214 8.03589 5.93916 8.06013 6.98693 8.5719C8.08049 9.1079 8.6596 10.2607 8.61112 11.4782C8.54647 13.1212 7.97545 14.6349 7.57143 16.1945C7.30747 17.2207 7.02195 18.2415 6.77685 19.2732C6.65564 19.7795 6.58561 20.3048 6.69065 20.8273C6.81186 21.4333 7.09737 21.6919 7.70341 21.7943C8.50607 21.9343 9.27102 21.77 10.0225 21.5088C10.0952 21.4845 10.1653 21.4576 10.2757 21.4172C10.1653 21.867 10.0683 22.2872 9.95786 22.7074C9.9444 22.7558 9.87975 22.8043 9.82588 22.8232C8.98013 23.1383 8.13706 23.4696 7.27783 23.7524C6.88189 23.8817 6.45631 23.9194 6.04421 23.9976C5.6725 24.0002 5.29811 24.0002 4.92372 24.0002Z" fill="black"/>
<path d="M7.77113 5.6088C6.34088 5.55223 5.36852 5.01353 4.83252 3.85263C4.22109 2.53013 4.85676 0.994833 6.23314 0.316072C7.49639 -0.306126 9.04785 0.0116974 9.96094 1.08102C11.1946 2.52473 10.567 4.7334 8.72462 5.396C8.36908 5.5226 7.98391 5.56031 7.77113 5.6088Z" fill="black"/>
</svg>
