<svg width="58" height="52" viewBox="0 0 58 52" fill="none" xmlns="http://www.w3.org/2000/svg">
<g filter="url(#filter0_d_1066_5831)">
<path d="M56 1H2V49L29.25 39.5116L56 49V1Z" fill="url(#paint0_linear_1066_5831)"/>
</g>
<path d="M26.5863 8.812V9.49H25.4703V13H24.6303V9.49H23.5143V8.812H26.5863ZM28.6752 13.054C28.3552 13.054 28.0672 12.984 27.8112 12.844C27.5552 12.7 27.3532 12.498 27.2052 12.238C27.0612 11.978 26.9892 11.678 26.9892 11.338C26.9892 10.998 27.0632 10.698 27.2112 10.438C27.3632 10.178 27.5692 9.978 27.8292 9.838C28.0892 9.694 28.3792 9.622 28.6992 9.622C29.0192 9.622 29.3092 9.694 29.5692 9.838C29.8292 9.978 30.0332 10.178 30.1812 10.438C30.3332 10.698 30.4092 10.998 30.4092 11.338C30.4092 11.678 30.3312 11.978 30.1752 12.238C30.0232 12.498 29.8152 12.7 29.5512 12.844C29.2912 12.984 28.9992 13.054 28.6752 13.054ZM28.6752 12.322C28.8272 12.322 28.9692 12.286 29.1012 12.214C29.2372 12.138 29.3452 12.026 29.4252 11.878C29.5052 11.73 29.5452 11.55 29.5452 11.338C29.5452 11.022 29.4612 10.78 29.2932 10.612C29.1292 10.44 28.9272 10.354 28.6872 10.354C28.4472 10.354 28.2452 10.44 28.0812 10.612C27.9212 10.78 27.8412 11.022 27.8412 11.338C27.8412 11.654 27.9192 11.898 28.0752 12.07C28.2352 12.238 28.4352 12.322 28.6752 12.322ZM31.8653 10.156C31.9733 10.004 32.1213 9.878 32.3093 9.778C32.5013 9.674 32.7193 9.622 32.9633 9.622C33.2473 9.622 33.5033 9.692 33.7313 9.832C33.9633 9.972 34.1453 10.172 34.2773 10.432C34.4133 10.688 34.4813 10.986 34.4813 11.326C34.4813 11.666 34.4133 11.968 34.2773 12.232C34.1453 12.492 33.9633 12.694 33.7313 12.838C33.5033 12.982 33.2473 13.054 32.9633 13.054C32.7193 13.054 32.5033 13.004 32.3153 12.904C32.1313 12.804 31.9813 12.678 31.8653 12.526V14.584H31.0253V9.676H31.8653V10.156ZM33.6233 11.326C33.6233 11.126 33.5813 10.954 33.4973 10.81C33.4173 10.662 33.3093 10.55 33.1733 10.474C33.0413 10.398 32.8973 10.36 32.7413 10.36C32.5893 10.36 32.4453 10.4 32.3093 10.48C32.1773 10.556 32.0693 10.668 31.9853 10.816C31.9053 10.964 31.8653 11.138 31.8653 11.338C31.8653 11.538 31.9053 11.712 31.9853 11.86C32.0693 12.008 32.1773 12.122 32.3093 12.202C32.4453 12.278 32.5893 12.316 32.7413 12.316C32.8973 12.316 33.0413 12.276 33.1733 12.196C33.3093 12.116 33.4173 12.002 33.4973 11.854C33.5813 11.706 33.6233 11.53 33.6233 11.326ZM7.32791 22L6.40391 20.368H6.00791V22H5.16791V17.812H6.73991C7.06391 17.812 7.33991 17.87 7.56791 17.986C7.79591 18.098 7.96591 18.252 8.07791 18.448C8.19391 18.64 8.25191 18.856 8.25191 19.096C8.25191 19.372 8.17191 19.622 8.01191 19.846C7.85191 20.066 7.61391 20.218 7.29791 20.302L8.29991 22H7.32791ZM6.00791 19.738H6.70991C6.93791 19.738 7.10791 19.684 7.21991 19.576C7.33191 19.464 7.38791 19.31 7.38791 19.114C7.38791 18.922 7.33191 18.774 7.21991 18.67C7.10791 18.562 6.93791 18.508 6.70991 18.508H6.00791V19.738ZM12.1017 20.266C12.1017 20.386 12.0937 20.494 12.0777 20.59H9.64766C9.66766 20.83 9.75166 21.018 9.89966 21.154C10.0477 21.29 10.2297 21.358 10.4457 21.358C10.7577 21.358 10.9797 21.224 11.1117 20.956H12.0177C11.9217 21.276 11.7377 21.54 11.4657 21.748C11.1937 21.952 10.8597 22.054 10.4637 22.054C10.1437 22.054 9.85566 21.984 9.59966 21.844C9.34766 21.7 9.14966 21.498 9.00566 21.238C8.86566 20.978 8.79566 20.678 8.79566 20.338C8.79566 19.994 8.86566 19.692 9.00566 19.432C9.14566 19.172 9.34166 18.972 9.59366 18.832C9.84566 18.692 10.1357 18.622 10.4637 18.622C10.7797 18.622 11.0617 18.69 11.3097 18.826C11.5617 18.962 11.7557 19.156 11.8917 19.408C12.0317 19.656 12.1017 19.942 12.1017 20.266ZM11.2317 20.026C11.2277 19.81 11.1497 19.638 10.9977 19.51C10.8457 19.378 10.6597 19.312 10.4397 19.312C10.2317 19.312 10.0557 19.376 9.91166 19.504C9.77166 19.628 9.68566 19.802 9.65366 20.026H11.2317ZM12.4988 20.338C12.4988 19.994 12.5688 19.694 12.7088 19.438C12.8488 19.178 13.0428 18.978 13.2908 18.838C13.5388 18.694 13.8228 18.622 14.1428 18.622C14.5548 18.622 14.8948 18.726 15.1628 18.934C15.4348 19.138 15.6168 19.426 15.7088 19.798H14.8028C14.7548 19.654 14.6728 19.542 14.5568 19.462C14.4448 19.378 14.3048 19.336 14.1368 19.336C13.8968 19.336 13.7068 19.424 13.5668 19.6C13.4268 19.772 13.3568 20.018 13.3568 20.338C13.3568 20.654 13.4268 20.9 13.5668 21.076C13.7068 21.248 13.8968 21.334 14.1368 21.334C14.4768 21.334 14.6988 21.182 14.8028 20.878H15.7088C15.6168 21.238 15.4348 21.524 15.1628 21.736C14.8908 21.948 14.5508 22.054 14.1428 22.054C13.8228 22.054 13.5388 21.984 13.2908 21.844C13.0428 21.7 12.8488 21.5 12.7088 21.244C12.5688 20.984 12.4988 20.682 12.4988 20.338ZM17.8002 22.054C17.4802 22.054 17.1922 21.984 16.9362 21.844C16.6802 21.7 16.4782 21.498 16.3302 21.238C16.1862 20.978 16.1142 20.678 16.1142 20.338C16.1142 19.998 16.1882 19.698 16.3362 19.438C16.4882 19.178 16.6942 18.978 16.9542 18.838C17.2142 18.694 17.5042 18.622 17.8242 18.622C18.1442 18.622 18.4342 18.694 18.6942 18.838C18.9542 18.978 19.1582 19.178 19.3062 19.438C19.4582 19.698 19.5342 19.998 19.5342 20.338C19.5342 20.678 19.4562 20.978 19.3002 21.238C19.1482 21.498 18.9402 21.7 18.6762 21.844C18.4162 21.984 18.1242 22.054 17.8002 22.054ZM17.8002 21.322C17.9522 21.322 18.0942 21.286 18.2262 21.214C18.3622 21.138 18.4702 21.026 18.5502 20.878C18.6302 20.73 18.6702 20.55 18.6702 20.338C18.6702 20.022 18.5862 19.78 18.4182 19.612C18.2542 19.44 18.0522 19.354 17.8122 19.354C17.5722 19.354 17.3702 19.44 17.2062 19.612C17.0462 19.78 16.9662 20.022 16.9662 20.338C16.9662 20.654 17.0442 20.898 17.2002 21.07C17.3602 21.238 17.5602 21.322 17.8002 21.322ZM24.2783 18.628C24.6863 18.628 25.0143 18.754 25.2623 19.006C25.5143 19.254 25.6403 19.602 25.6403 20.05V22H24.8003V20.164C24.8003 19.904 24.7343 19.706 24.6023 19.57C24.4703 19.43 24.2903 19.36 24.0623 19.36C23.8343 19.36 23.6523 19.43 23.5163 19.57C23.3843 19.706 23.3183 19.904 23.3183 20.164V22H22.4783V20.164C22.4783 19.904 22.4123 19.706 22.2803 19.57C22.1483 19.43 21.9683 19.36 21.7403 19.36C21.5083 19.36 21.3243 19.43 21.1883 19.57C21.0563 19.706 20.9903 19.904 20.9903 20.164V22H20.1503V18.676H20.9903V19.078C21.0983 18.938 21.2363 18.828 21.4043 18.748C21.5763 18.668 21.7643 18.628 21.9683 18.628C22.2283 18.628 22.4603 18.684 22.6643 18.796C22.8683 18.904 23.0263 19.06 23.1383 19.264C23.2463 19.072 23.4023 18.918 23.6063 18.802C23.8143 18.686 24.0383 18.628 24.2783 18.628ZM30.5654 18.628C30.9734 18.628 31.3014 18.754 31.5494 19.006C31.8014 19.254 31.9274 19.602 31.9274 20.05V22H31.0874V20.164C31.0874 19.904 31.0214 19.706 30.8894 19.57C30.7574 19.43 30.5774 19.36 30.3494 19.36C30.1214 19.36 29.9394 19.43 29.8034 19.57C29.6714 19.706 29.6054 19.904 29.6054 20.164V22H28.7654V20.164C28.7654 19.904 28.6994 19.706 28.5674 19.57C28.4354 19.43 28.2554 19.36 28.0274 19.36C27.7954 19.36 27.6114 19.43 27.4754 19.57C27.3434 19.706 27.2774 19.904 27.2774 20.164V22H26.4374V18.676H27.2774V19.078C27.3854 18.938 27.5234 18.828 27.6914 18.748C27.8634 18.668 28.0514 18.628 28.2554 18.628C28.5154 18.628 28.7474 18.684 28.9514 18.796C29.1554 18.904 29.3134 19.06 29.4254 19.264C29.5334 19.072 29.6894 18.918 29.8934 18.802C30.1014 18.686 30.3254 18.628 30.5654 18.628ZM35.8145 20.266C35.8145 20.386 35.8065 20.494 35.7905 20.59H33.3605C33.3805 20.83 33.4645 21.018 33.6125 21.154C33.7605 21.29 33.9425 21.358 34.1585 21.358C34.4705 21.358 34.6925 21.224 34.8245 20.956H35.7305C35.6345 21.276 35.4505 21.54 35.1785 21.748C34.9065 21.952 34.5725 22.054 34.1765 22.054C33.8565 22.054 33.5685 21.984 33.3125 21.844C33.0605 21.7 32.8625 21.498 32.7185 21.238C32.5785 20.978 32.5085 20.678 32.5085 20.338C32.5085 19.994 32.5785 19.692 32.7185 19.432C32.8585 19.172 33.0545 18.972 33.3065 18.832C33.5585 18.692 33.8485 18.622 34.1765 18.622C34.4925 18.622 34.7745 18.69 35.0225 18.826C35.2745 18.962 35.4685 19.156 35.6045 19.408C35.7445 19.656 35.8145 19.942 35.8145 20.266ZM34.9445 20.026C34.9405 19.81 34.8625 19.638 34.7105 19.51C34.5585 19.378 34.3725 19.312 34.1525 19.312C33.9445 19.312 33.7685 19.376 33.6245 19.504C33.4845 19.628 33.3985 19.802 33.3665 20.026H34.9445ZM38.2697 18.628C38.6657 18.628 38.9857 18.754 39.2297 19.006C39.4737 19.254 39.5957 19.602 39.5957 20.05V22H38.7557V20.164C38.7557 19.9 38.6897 19.698 38.5577 19.558C38.4257 19.414 38.2457 19.342 38.0177 19.342C37.7857 19.342 37.6017 19.414 37.4657 19.558C37.3337 19.698 37.2677 19.9 37.2677 20.164V22H36.4277V18.676H37.2677V19.09C37.3797 18.946 37.5217 18.834 37.6937 18.754C37.8697 18.67 38.0617 18.628 38.2697 18.628ZM40.1785 20.326C40.1785 19.99 40.2445 19.692 40.3765 19.432C40.5125 19.172 40.6965 18.972 40.9285 18.832C41.1605 18.692 41.4185 18.622 41.7025 18.622C41.9185 18.622 42.1245 18.67 42.3205 18.766C42.5165 18.858 42.6725 18.982 42.7885 19.138V17.56H43.6405V22H42.7885V21.508C42.6845 21.672 42.5385 21.804 42.3505 21.904C42.1625 22.004 41.9445 22.054 41.6965 22.054C41.4165 22.054 41.1605 21.982 40.9285 21.838C40.6965 21.694 40.5125 21.492 40.3765 21.232C40.2445 20.968 40.1785 20.666 40.1785 20.326ZM42.7945 20.338C42.7945 20.134 42.7545 19.96 42.6745 19.816C42.5945 19.668 42.4865 19.556 42.3505 19.48C42.2145 19.4 42.0685 19.36 41.9125 19.36C41.7565 19.36 41.6125 19.398 41.4805 19.474C41.3485 19.55 41.2405 19.662 41.1565 19.81C41.0765 19.954 41.0365 20.126 41.0365 20.326C41.0365 20.526 41.0765 20.702 41.1565 20.854C41.2405 21.002 41.3485 21.116 41.4805 21.196C41.6165 21.276 41.7605 21.316 41.9125 21.316C42.0685 21.316 42.2145 21.278 42.3505 21.202C42.4865 21.122 42.5945 21.01 42.6745 20.866C42.7545 20.718 42.7945 20.542 42.7945 20.338ZM47.5509 20.266C47.5509 20.386 47.5429 20.494 47.5269 20.59H45.0969C45.1169 20.83 45.2009 21.018 45.3489 21.154C45.4969 21.29 45.6789 21.358 45.8949 21.358C46.2069 21.358 46.4289 21.224 46.5609 20.956H47.4669C47.3709 21.276 47.1869 21.54 46.9149 21.748C46.6429 21.952 46.3089 22.054 45.9129 22.054C45.5929 22.054 45.3049 21.984 45.0489 21.844C44.7969 21.7 44.5989 21.498 44.4549 21.238C44.3149 20.978 44.2449 20.678 44.2449 20.338C44.2449 19.994 44.3149 19.692 44.4549 19.432C44.5949 19.172 44.7909 18.972 45.0429 18.832C45.2949 18.692 45.5849 18.622 45.9129 18.622C46.2289 18.622 46.5109 18.69 46.7589 18.826C47.0109 18.962 47.2049 19.156 47.3409 19.408C47.4809 19.656 47.5509 19.942 47.5509 20.266ZM46.6809 20.026C46.6769 19.81 46.5989 19.638 46.4469 19.51C46.2949 19.378 46.1089 19.312 45.8889 19.312C45.6809 19.312 45.5049 19.376 45.3609 19.504C45.2209 19.628 45.1349 19.802 45.1029 20.026H46.6809ZM47.948 20.326C47.948 19.99 48.014 19.692 48.146 19.432C48.282 19.172 48.466 18.972 48.698 18.832C48.93 18.692 49.188 18.622 49.472 18.622C49.688 18.622 49.894 18.67 50.09 18.766C50.286 18.858 50.442 18.982 50.558 19.138V17.56H51.41V22H50.558V21.508C50.454 21.672 50.308 21.804 50.12 21.904C49.932 22.004 49.714 22.054 49.466 22.054C49.186 22.054 48.93 21.982 48.698 21.838C48.466 21.694 48.282 21.492 48.146 21.232C48.014 20.968 47.948 20.666 47.948 20.326ZM50.564 20.338C50.564 20.134 50.524 19.96 50.444 19.816C50.364 19.668 50.256 19.556 50.12 19.48C49.984 19.4 49.838 19.36 49.682 19.36C49.526 19.36 49.382 19.398 49.25 19.474C49.118 19.55 49.01 19.662 48.926 19.81C48.846 19.954 48.806 20.126 48.806 20.326C48.806 20.526 48.846 20.702 48.926 20.854C49.01 21.002 49.118 21.116 49.25 21.196C49.386 21.276 49.53 21.316 49.682 21.316C49.838 21.316 49.984 21.278 50.12 21.202C50.256 21.122 50.364 21.01 50.444 20.866C50.524 20.718 50.564 20.542 50.564 20.338ZM20.5325 28.108C20.5325 28.332 20.4785 28.542 20.3705 28.738C20.2665 28.934 20.1005 29.092 19.8725 29.212C19.6485 29.332 19.3645 29.392 19.0205 29.392H18.3185V31H17.4785V26.812H19.0205C19.3445 26.812 19.6205 26.868 19.8485 26.98C20.0765 27.092 20.2465 27.246 20.3585 27.442C20.4745 27.638 20.5325 27.86 20.5325 28.108ZM18.9845 28.714C19.2165 28.714 19.3885 28.662 19.5005 28.558C19.6125 28.45 19.6685 28.3 19.6685 28.108C19.6685 27.7 19.4405 27.496 18.9845 27.496H18.3185V28.714H18.9845ZM21.9688 28.192C22.0768 28.016 22.2168 27.878 22.3888 27.778C22.5648 27.678 22.7648 27.628 22.9888 27.628V28.51H22.7668C22.5028 28.51 22.3028 28.572 22.1668 28.696C22.0348 28.82 21.9688 29.036 21.9688 29.344V31H21.1288V27.676H21.9688V28.192ZM25.0306 31.054C24.7106 31.054 24.4226 30.984 24.1666 30.844C23.9106 30.7 23.7086 30.498 23.5606 30.238C23.4166 29.978 23.3446 29.678 23.3446 29.338C23.3446 28.998 23.4186 28.698 23.5666 28.438C23.7186 28.178 23.9246 27.978 24.1846 27.838C24.4446 27.694 24.7346 27.622 25.0546 27.622C25.3746 27.622 25.6646 27.694 25.9246 27.838C26.1846 27.978 26.3886 28.178 26.5366 28.438C26.6886 28.698 26.7646 28.998 26.7646 29.338C26.7646 29.678 26.6866 29.978 26.5306 30.238C26.3786 30.498 26.1706 30.7 25.9066 30.844C25.6466 30.984 25.3546 31.054 25.0306 31.054ZM25.0306 30.322C25.1826 30.322 25.3246 30.286 25.4566 30.214C25.5926 30.138 25.7006 30.026 25.7806 29.878C25.8606 29.73 25.9006 29.55 25.9006 29.338C25.9006 29.022 25.8166 28.78 25.6486 28.612C25.4846 28.44 25.2826 28.354 25.0426 28.354C24.8026 28.354 24.6006 28.44 24.4366 28.612C24.2766 28.78 24.1966 29.022 24.1966 29.338C24.1966 29.654 24.2746 29.898 24.4306 30.07C24.5906 30.238 24.7906 30.322 25.0306 30.322ZM27.1648 29.326C27.1648 28.99 27.2308 28.692 27.3628 28.432C27.4988 28.172 27.6828 27.972 27.9148 27.832C28.1468 27.692 28.4048 27.622 28.6888 27.622C28.9048 27.622 29.1108 27.67 29.3068 27.766C29.5028 27.858 29.6588 27.982 29.7748 28.138V26.56H30.6268V31H29.7748V30.508C29.6708 30.672 29.5248 30.804 29.3368 30.904C29.1488 31.004 28.9308 31.054 28.6828 31.054C28.4028 31.054 28.1468 30.982 27.9148 30.838C27.6828 30.694 27.4988 30.492 27.3628 30.232C27.2308 29.968 27.1648 29.666 27.1648 29.326ZM29.7808 29.338C29.7808 29.134 29.7408 28.96 29.6608 28.816C29.5808 28.668 29.4728 28.556 29.3368 28.48C29.2008 28.4 29.0548 28.36 28.8988 28.36C28.7428 28.36 28.5988 28.398 28.4668 28.474C28.3348 28.55 28.2268 28.662 28.1428 28.81C28.0628 28.954 28.0228 29.126 28.0228 29.326C28.0228 29.526 28.0628 29.702 28.1428 29.854C28.2268 30.002 28.3348 30.116 28.4668 30.196C28.6028 30.276 28.7468 30.316 28.8988 30.316C29.0548 30.316 29.2008 30.278 29.3368 30.202C29.4728 30.122 29.5808 30.01 29.6608 29.866C29.7408 29.718 29.7808 29.542 29.7808 29.338ZM34.5852 27.676V31H33.7392V30.58C33.6312 30.724 33.4892 30.838 33.3132 30.922C33.1412 31.002 32.9532 31.042 32.7492 31.042C32.4892 31.042 32.2592 30.988 32.0592 30.88C31.8592 30.768 31.7012 30.606 31.5852 30.394C31.4732 30.178 31.4172 29.922 31.4172 29.626V27.676H32.2572V29.506C32.2572 29.77 32.3232 29.974 32.4552 30.118C32.5872 30.258 32.7672 30.328 32.9952 30.328C33.2272 30.328 33.4092 30.258 33.5412 30.118C33.6732 29.974 33.7392 29.77 33.7392 29.506V27.676H34.5852ZM35.198 29.338C35.198 28.994 35.268 28.694 35.408 28.438C35.548 28.178 35.742 27.978 35.99 27.838C36.238 27.694 36.522 27.622 36.842 27.622C37.254 27.622 37.594 27.726 37.862 27.934C38.134 28.138 38.316 28.426 38.408 28.798H37.502C37.454 28.654 37.372 28.542 37.256 28.462C37.144 28.378 37.004 28.336 36.836 28.336C36.596 28.336 36.406 28.424 36.266 28.6C36.126 28.772 36.056 29.018 36.056 29.338C36.056 29.654 36.126 29.9 36.266 30.076C36.406 30.248 36.596 30.334 36.836 30.334C37.176 30.334 37.398 30.182 37.502 29.878H38.408C38.316 30.238 38.134 30.524 37.862 30.736C37.59 30.948 37.25 31.054 36.842 31.054C36.522 31.054 36.238 30.984 35.99 30.844C35.742 30.7 35.548 30.5 35.408 30.244C35.268 29.984 35.198 29.682 35.198 29.338ZM40.0014 28.366V29.974C40.0014 30.086 40.0274 30.168 40.0794 30.22C40.1354 30.268 40.2274 30.292 40.3554 30.292H40.7454V31H40.2174C39.5094 31 39.1554 30.656 39.1554 29.968V28.366H38.7594V27.676H39.1554V26.854H40.0014V27.676H40.7454V28.366H40.0014Z" fill="white"/>
<defs>
<filter id="filter0_d_1066_5831" x="0.604651" y="0.534884" width="56.7907" height="50.7907" filterUnits="userSpaceOnUse" color-interpolation-filters="sRGB">
<feFlood flood-opacity="0" result="BackgroundImageFix"/>
<feColorMatrix in="SourceAlpha" type="matrix" values="0 0 0 0 0 0 0 0 0 0 0 0 0 0 0 0 0 0 127 0" result="hardAlpha"/>
<feOffset dy="0.930233"/>
<feGaussianBlur stdDeviation="0.697674"/>
<feComposite in2="hardAlpha" operator="out"/>
<feColorMatrix type="matrix" values="0 0 0 0 0 0 0 0 0 0 0 0 0 0 0 0 0 0 0.15 0"/>
<feBlend mode="normal" in2="BackgroundImageFix" result="effect1_dropShadow_1066_5831"/>
<feBlend mode="normal" in="SourceGraphic" in2="effect1_dropShadow_1066_5831" result="shape"/>
</filter>
<linearGradient id="paint0_linear_1066_5831" x1="29" y1="1" x2="29" y2="49" gradientUnits="userSpaceOnUse">
<stop stop-color="#FDC539"/>
<stop offset="1" stop-color="#FF9D43"/>
</linearGradient>
</defs>
</svg>
