<svg width="23" height="22" viewBox="0 0 23 22" fill="none" xmlns="http://www.w3.org/2000/svg">
<path d="M0.000979472 4.83076C0.000979472 3.83243 -0.00122811 2.8341 0.00171031 1.83504C0.00538333 0.75517 0.755416 0.00367302 1.83528 0.00220381C3.84149 -0.000734604 5.84843 -0.000734604 7.85463 0.00220381C8.92054 0.00367302 9.67865 0.753703 9.68085 1.81447C9.68526 3.82949 9.68526 5.84524 9.68085 7.86026C9.67865 8.92397 8.92422 9.67767 7.86124 9.67988C5.84549 9.68355 3.82974 9.68355 1.81398 9.67988C0.754683 9.67767 0.00465249 8.91883 0.000979472 7.85365C-0.00122434 6.84578 0.000979472 5.83863 0.000979472 4.83076Z" fill="black"/>
<path d="M17.1789 0.00243243C18.1596 0.00243243 19.1396 0.00169783 20.1203 0.00243243C21.2604 0.00390164 22.0023 0.737035 22.0038 1.86906C22.006 3.8569 22.006 5.84474 22.0038 7.83258C22.0023 8.93228 21.2552 9.68011 20.1577 9.68158C18.1603 9.68378 16.163 9.68452 14.1656 9.68158C13.0703 9.68011 12.3247 8.93007 12.3239 7.8289C12.3217 5.84106 12.3217 3.85323 12.3239 1.86539C12.3247 0.748055 13.0681 0.00537157 14.1839 0.00316775C15.1815 0.000963941 16.1799 0.00243243 17.1789 0.00243243Z" fill="black"/>
<path d="M0.000979472 17.1439C0.000979472 16.1544 -0.000493502 15.1649 0.00171031 14.1761C0.00391412 13.0624 0.748804 12.3205 1.86687 12.3198C3.85471 12.3183 5.84328 12.3175 7.83112 12.3198C8.93156 12.3212 9.67939 13.0654 9.68085 14.1636C9.68379 16.1603 9.68379 18.1577 9.68085 20.1543C9.67939 21.2511 8.92936 21.996 7.82892 21.9974C5.83153 21.9996 3.83414 22.0004 1.83675 21.9974C0.755417 21.996 0.00465249 21.2452 0.000979472 20.1668C-0.00122434 19.1589 0.000979472 18.1518 0.000979472 17.1439Z" fill="black"/>
<path d="M22.0041 17.1472C22.0004 19.8285 19.8356 21.9992 17.1682 21.997C14.4788 21.9948 12.3213 19.8263 12.3242 17.1281C12.3272 14.4695 14.5148 12.3127 17.2013 12.3201C19.8378 12.3267 22.0078 14.507 22.0041 17.1472Z" fill="black"/>
</svg>
