<svg width="18" height="17" viewBox="0 0 18 17" fill="none" xmlns="http://www.w3.org/2000/svg">
<path d="M15.2433 17C10.749 17 6.25481 17 1.76018 17C1.73481 16.9904 1.71028 16.9763 1.68367 16.9721C1.13353 16.8852 0.702326 16.607 0.372162 16.1634C0.167161 15.8881 0.0723533 15.5687 0 15.2402C0 10.7469 0 6.25346 0 1.76049C0.00997976 1.7293 0.0241178 1.69895 0.0299393 1.66693C0.209991 0.675609 1.01045 0.00239042 2.02797 0.00155877C6.34339 -0.000936168 10.6588 -0.00093632 14.9742 0.00530103C15.2025 0.00571685 15.4408 0.0427251 15.657 0.115078C16.4911 0.393264 17.0026 1.14549 17.0026 2.06238C17.0034 6.35492 17.003 10.6471 17.003 14.9396C17.003 14.9837 17.0034 15.0282 17.0009 15.0722C16.9693 15.7001 16.7045 16.2066 16.2105 16.5954C15.9256 16.82 15.5905 16.9239 15.2433 17ZM13.5791 5.77776C13.5097 5.77776 13.4552 5.77776 13.4012 5.77776C13.0581 5.77776 12.715 5.77776 12.3716 5.77776C11.6085 5.77776 11.2252 6.15866 11.2252 6.91587C11.2252 7.14831 11.2252 7.38076 11.2252 7.6132C11.2252 7.8049 11.2252 7.99701 11.2252 8.20575C12.0314 8.20575 12.8194 8.20575 13.6157 8.20575C13.5014 8.89893 13.3899 9.5734 13.2756 10.2645C12.5895 10.2645 11.9121 10.2645 11.2385 10.2645C11.2385 12.0775 11.2385 13.8722 11.2385 15.6723C12.4747 15.6723 13.6976 15.6727 14.921 15.6719C15.4142 15.6714 15.6749 15.4082 15.6749 14.9105C15.6753 10.6387 15.6753 6.36698 15.6749 2.09523C15.6749 1.58876 15.415 1.32887 14.9089 1.32887C10.6363 1.32845 6.36376 1.32845 2.09118 1.32887C1.5872 1.32887 1.32897 1.59 1.32897 2.09897C1.32856 6.36532 1.32856 10.6313 1.32897 14.8976C1.32897 15.4149 1.58595 15.6719 2.10365 15.6719C4.39484 15.6723 6.68602 15.6719 8.97763 15.6719C9.03667 15.6719 9.0953 15.6719 9.15477 15.6719C9.15477 13.8576 9.15477 12.0629 9.15477 10.2562C8.49194 10.2562 7.84076 10.2562 7.18376 10.2562C7.18376 9.56716 7.18376 8.8902 7.18376 8.19536C7.84867 8.19536 8.50359 8.19536 9.17181 8.19536C9.17181 7.6631 9.15518 7.14831 9.17514 6.63519C9.22754 5.29042 10.166 4.14607 11.4709 3.81757C12.1578 3.64459 12.8585 3.74023 13.5538 3.72484C13.5617 3.72484 13.57 3.73856 13.5795 3.7473C13.5791 4.41511 13.5791 5.08375 13.5791 5.77776Z" fill="black"/>
</svg>
