<svg width="21" height="16" viewBox="0 0 21 16" fill="none" xmlns="http://www.w3.org/2000/svg">
<g clip-path="url(#clip0_856_3721)">
<path d="M3.93026 9.122C4.07248 9.12915 4.14108 9.13629 4.21041 9.13629C7.75588 9.13701 11.3021 9.14273 14.8475 9.13415C16.5906 9.12986 17.9556 7.96638 18.2594 6.25118C18.2994 6.02463 18.3001 5.78879 18.3008 5.55724C18.3044 4.11003 18.2987 2.66354 18.3044 1.21634C18.3065 0.486662 18.7961 -0.0121764 19.4772 -2.70181e-05C20.0553 0.00997834 20.5785 0.453073 20.5806 1.03052C20.5878 2.83363 20.6478 4.64317 20.5213 6.43842C20.3448 8.94905 18.1093 11.1159 15.6008 11.3761C15.2906 11.4082 14.9776 11.4254 14.666 11.4261C11.2006 11.4297 7.73515 11.4282 4.26972 11.4282C4.17467 11.4282 4.07962 11.4282 3.93383 11.4282C4.02602 11.5297 4.08105 11.594 4.14108 11.6541C4.93651 12.4502 5.73908 13.2392 6.52522 14.0439C7.15055 14.685 6.88684 15.7148 6.04282 15.9521C5.58043 16.0822 5.18879 15.9407 4.85003 15.6005C3.57792 14.3212 2.3001 13.047 1.02441 11.772C0.809299 11.5576 0.59204 11.3453 0.37621 11.1316C-0.124773 10.635 -0.128346 9.93672 0.367634 9.44146C1.85343 7.95924 3.34137 6.47916 4.82431 4.99336C5.14233 4.67462 5.50181 4.49738 5.95491 4.59315C6.38085 4.6832 6.6753 4.94334 6.81109 5.35784C6.95473 5.79593 6.84968 6.19115 6.53308 6.51918C6.11786 6.94941 5.68977 7.3682 5.26597 7.79129C4.8386 8.21866 4.40837 8.64603 3.93026 9.122Z" fill="black"/>
</g>
<defs>
<clipPath id="clip0_856_3721">
<rect width="20.6025" height="16" fill="white"/>
</clipPath>
</defs>
</svg>
