<svg width="24" height="24" viewBox="0 0 24 24" fill="none" xmlns="http://www.w3.org/2000/svg">
<path d="M11.2975 24.0001C10.8736 23.9431 10.4479 23.8987 10.0265 23.8273C8.12305 23.5048 6.39931 22.7597 4.85027 21.6089C4.80832 21.5776 4.76512 21.5494 4.68685 21.4943C4.71378 21.8105 4.73757 22.0848 4.76261 22.3828C4.22289 22.4348 3.69757 22.4849 3.13718 22.5387C3.10838 22.2876 3.0777 22.0441 3.05328 21.7993C2.98065 21.0692 2.9124 20.3385 2.83915 19.6084C2.79219 19.1395 3.06894 18.7037 3.53102 18.6868C4.55036 18.6505 5.57157 18.6755 6.60531 18.6755C6.60531 19.2146 6.60531 19.7424 6.60531 20.2934C6.32543 20.2934 6.04868 20.2934 5.74814 20.2934C6.59028 21.1018 8.88504 22.2833 11.3032 22.4292C13.36 22.5538 15.2922 22.1374 17.0898 21.1331C21.8127 18.4939 23.8514 12.6071 21.4195 7.45341C21.8716 7.23364 22.3236 7.01387 22.8189 6.77344C22.9967 7.21674 23.1839 7.64188 23.3386 8.07829C23.6811 9.04628 23.8883 10.045 23.9597 11.0712C23.9641 11.1313 23.986 11.1901 23.9998 11.2496C23.9998 11.7343 23.9998 12.2183 23.9998 12.7029C23.9447 13.1186 23.9027 13.5369 23.8326 13.9501C23.4469 16.223 22.4752 18.2209 20.9418 19.9347C19.0922 22.0015 16.8049 23.3158 14.0663 23.8148C13.6311 23.8943 13.1891 23.9394 12.7508 24.0007C12.2661 24.0001 11.7821 24.0001 11.2975 24.0001Z" fill="black"/>
<path d="M2.57775 16.5497C2.11379 16.7745 1.66611 16.9911 1.21905 17.2071C-0.620514 13.6351 -0.671856 8.18212 3.12561 3.99081C5.21125 1.68854 7.81219 0.335474 10.9184 0.0524638C14.0102 -0.229294 16.7952 0.629128 19.3142 2.5C19.2872 2.18568 19.2634 1.91144 19.2378 1.61465C19.7794 1.56143 20.3047 1.50946 20.8632 1.45499C20.8914 1.69981 20.9214 1.93586 20.9446 2.17253C21.0179 2.91074 21.0867 3.64895 21.1606 4.38715C21.2107 4.89118 20.8832 5.31758 20.3773 5.3276C19.3943 5.34701 18.4113 5.33323 17.4089 5.33323C17.4089 4.79038 17.4089 4.25692 17.4089 3.69716C17.6831 3.69716 17.958 3.69716 18.2648 3.69716C15.5298 1.4575 10.7237 0.543975 6.57495 3.05663C2.2315 5.68762 0.142111 11.3785 2.57775 16.5497Z" fill="black"/>
<path d="M12.9323 19.2318C12.9323 19.1303 12.9323 19.0615 12.9323 18.992C12.9329 16.9226 12.9348 14.8532 12.9316 12.7839C12.9316 12.6468 12.9561 12.5591 13.0894 12.4865C15.1563 11.3576 17.2194 10.2224 19.2837 9.08848C19.3232 9.06657 19.3664 9.05091 19.4321 9.02148C19.4384 9.09662 19.4471 9.1536 19.4478 9.2112C19.4484 11.4446 19.4478 13.678 19.4503 15.9108C19.4503 16.036 19.434 16.1212 19.3 16.185C17.2175 17.1793 15.1387 18.1799 13.0587 19.1785C13.0306 19.1929 13.0024 19.203 12.9323 19.2318Z" fill="black"/>
<path d="M10.9916 19.2336C10.2534 18.8774 9.54587 18.5349 8.83834 18.1936C7.469 17.5331 6.10028 16.8713 4.72906 16.2144C4.59194 16.1487 4.51305 16.0842 4.51368 15.9064C4.52182 13.6886 4.51868 11.4703 4.51931 9.25253C4.51931 9.18553 4.5287 9.11791 4.53622 9.02148C4.62826 9.06719 4.69651 9.0985 4.76162 9.13419C6.78402 10.2474 8.80641 11.3607 10.8288 12.474C10.9321 12.5309 11.016 12.576 11.0154 12.7307C11.0066 14.8551 11.0066 16.979 11.0041 19.1034C11.0054 19.1328 10.9991 19.1629 10.9916 19.2336Z" fill="black"/>
<path d="M5.67578 7.4141C5.74591 7.3759 5.80414 7.34084 5.86487 7.31141C7.83718 6.3597 9.80948 5.40735 11.7849 4.46253C11.8757 4.41932 12.0185 4.40242 12.1042 4.44312C14.131 5.40673 16.154 6.37973 18.1771 7.35148C18.204 7.36463 18.229 7.38216 18.2791 7.41284C18.2021 7.46106 18.1433 7.50301 18.08 7.53744C16.1046 8.62127 14.1285 9.70385 12.155 10.7902C12.0379 10.8547 11.9465 10.8841 11.8143 10.8108C9.79571 9.69258 7.77394 8.58057 5.75279 7.46669C5.73276 7.45479 5.71398 7.43977 5.67578 7.4141Z" fill="black"/>
</svg>
