<svg width="30" height="30" viewBox="0 0 30 30" fill="none" xmlns="http://www.w3.org/2000/svg">
<g clip-path="url(#clip0_856_2521)">
<path d="M29.679 6.8404C29.679 7.96109 29.679 9.08178 29.679 10.2025C29.1843 10.2025 28.6819 10.2025 28.1641 10.2025C28.1641 14.9789 28.1641 19.709 28.1641 24.4777C27.4917 24.4777 26.8425 24.4777 26.17 24.4777C26.2164 24.5782 26.2396 24.64 26.2628 24.7019C26.997 26.2863 26.5256 28.0639 25.1035 29.0687C24.6243 29.4088 24.0832 29.5634 23.5268 29.687C23.2562 29.687 22.9857 29.687 22.7152 29.687C22.6611 29.6716 22.607 29.6406 22.5529 29.6329C21.5713 29.4551 20.7985 28.9528 20.242 28.1258C20.126 27.9557 20.0178 27.8862 19.8092 27.8862C15.2027 27.8939 10.5963 27.8939 5.98989 27.8939C5.88942 27.8939 5.78121 27.8939 5.67301 27.8939C5.67301 28.5122 5.67301 29.0996 5.67301 29.687C5.09334 29.687 4.51368 29.687 3.93401 29.687C3.92628 29.5711 3.91855 29.4551 3.91855 29.3392C3.91855 27.8321 3.91855 26.3249 3.91855 24.8178C3.91855 24.7096 3.91855 24.5937 3.91855 24.4623C3.09156 24.4623 2.31094 24.4623 1.49941 24.4623C1.49941 19.7013 1.49941 14.9712 1.49941 10.2025C0.973841 10.2025 0.48692 10.2025 0 10.2025C0 9.08178 0 7.96109 0 6.8404C0.0154578 6.81721 0.0386445 6.79403 0.0386445 6.77084C0.216409 5.09367 1.76219 3.43196 4.0654 3.44742C10.2253 3.49379 16.393 3.46287 22.5529 3.46287C22.6766 3.46287 22.8002 3.46287 22.9394 3.46287C22.9394 2.87548 22.9394 2.32673 22.9394 1.73933C22.2515 1.73933 21.5868 1.73933 20.868 1.73933C20.868 1.1442 20.868 0.572266 20.868 0.00805664C22.8389 0.00805664 24.8098 0.00805664 26.7806 0.00805664C26.7806 0.579995 26.7806 1.15966 26.7806 1.76252C26.0541 1.76252 25.3817 1.76252 24.7093 1.76252C24.7093 2.33445 24.7093 2.88321 24.7093 3.4706C25.1576 3.4706 25.5826 3.45514 26.0155 3.4706C27.654 3.53243 29.0529 4.63767 29.5089 6.20663C29.5785 6.41531 29.6249 6.63172 29.679 6.8404ZM3.26159 22.7078C10.9982 22.7078 18.7039 22.7078 26.4096 22.7078C26.4096 18.5342 26.4096 14.3761 26.4096 10.2257C18.6807 10.2257 10.975 10.2257 3.26159 10.2257C3.26159 14.3838 3.26159 18.5342 3.26159 22.7078ZM27.9245 8.45574C27.9245 7.96109 27.9709 7.49736 27.9168 7.04135C27.7854 5.92066 26.9197 5.19415 25.7604 5.19415C18.4798 5.19415 11.1992 5.19415 3.91082 5.19415C3.84126 5.19415 3.7717 5.19415 3.70987 5.20187C2.92925 5.25598 2.35731 5.63469 1.98633 6.30711C1.61534 6.98725 1.76219 7.72922 1.74673 8.45574C10.4958 8.45574 19.1908 8.45574 27.9245 8.45574ZM20.0488 24.4777C15.2878 24.4777 10.4958 24.4777 5.68074 24.4777C5.68074 25.0342 5.68074 25.5752 5.68074 26.1317C10.349 26.1317 14.9941 26.1317 19.5928 26.1317C19.7473 25.5675 19.8942 25.0342 20.0488 24.4777ZM24.8716 26.209C24.8716 25.2506 24.1064 24.47 23.1558 24.4623C22.1974 24.4546 21.4013 25.2506 21.4013 26.209C21.409 27.1597 22.1897 27.9403 23.1403 27.9403C24.091 27.9403 24.8716 27.1674 24.8716 26.209Z" fill="#B338FF"/>
<path d="M21.8574 20.0728C21.2932 19.8873 20.7599 19.7095 20.2111 19.524C20.4507 18.7898 20.6903 18.0787 20.9299 17.3368C20.1416 17.3368 19.3919 17.3368 18.6035 17.3368C19.0982 15.8451 19.5928 14.3689 20.0875 12.8772C20.6362 13.0627 21.1772 13.2405 21.7337 13.4259C21.4941 14.1525 21.2623 14.8635 21.0149 15.5978C21.7878 15.5978 22.5298 15.5978 23.3336 15.5978C22.839 17.1049 22.352 18.5734 21.8574 20.0728Z" fill="#B338FF"/>
<path d="M6.2207 13.0549C6.80037 13.0549 7.34912 13.0549 7.92879 13.0549C7.92879 15.3272 7.92879 17.5918 7.92879 19.8718C7.36458 19.8718 6.80037 19.8718 6.2207 19.8718C6.2207 17.6073 6.2207 15.3427 6.2207 13.0549Z" fill="#B338FF"/>
<path d="M9.58203 13.0549C10.1617 13.0549 10.7182 13.0549 11.2901 13.0549C11.2901 15.3272 11.2901 17.5918 11.2901 19.8718C10.7182 19.8718 10.1617 19.8718 9.58203 19.8718C9.58203 17.6073 9.58203 15.3427 9.58203 13.0549Z" fill="#B338FF"/>
<path d="M12.9453 13.0549C13.525 13.0549 14.0815 13.0549 14.6534 13.0549C14.6534 15.3272 14.6534 17.5918 14.6534 19.8718C14.0892 19.8718 13.525 19.8718 12.9453 19.8718C12.9453 17.6073 12.9453 15.3427 12.9453 13.0549Z" fill="#B338FF"/>
</g>
<defs>
<clipPath id="clip0_856_2521">
<rect width="29.679" height="29.679" fill="white"/>
</clipPath>
</defs>
</svg>
