<svg width="18" height="18" viewBox="0 0 18 18" fill="none" xmlns="http://www.w3.org/2000/svg">
<path d="M8.18345 15.208C8.42346 16.3278 8.13614 17.1546 7.34745 17.6658C6.62569 18.1337 5.68988 18.1083 4.99465 17.6023C4.23769 17.0507 3.98903 16.2015 4.28327 15.1312C3.64517 14.9264 3.1663 14.5306 2.90725 13.8994C2.7382 13.4875 2.71051 13.0594 2.81898 12.6296C2.9511 12.1057 3.2488 11.6949 3.70113 11.3955C4.15461 11.0949 4.66233 11.0349 5.21447 11.0666C5.18043 10.9639 5.15735 10.8831 5.12793 10.8053C3.9798 7.74224 2.82878 4.6821 1.68815 1.61792C1.61661 1.42522 1.52546 1.36695 1.33275 1.38195C1.11813 1.39868 0.900619 1.3906 0.68484 1.38425C0.296553 1.37271 -0.000576111 1.06924 8.38777e-07 0.693069C0.000577788 0.315167 0.295976 0.0116915 0.686571 0.00534509C1.14698 -0.00215525 1.60796 -0.0015783 2.06894 0.00592204C2.43415 0.0116915 2.63954 0.22574 2.76186 0.554024C3.36362 2.17006 3.97114 3.78436 4.57636 5.39924C5.25716 7.21606 5.94027 9.03229 6.6153 10.8514C6.67415 11.0095 6.74396 11.0666 6.91993 11.066C9.6414 11.0591 12.3634 11.0614 15.0849 11.0614C15.1553 11.0614 15.2263 11.0614 15.3117 11.0614C15.6959 8.75536 16.0778 6.4666 16.4638 4.15015C16.3663 4.15015 16.2827 4.15015 16.199 4.15015C12.9231 4.15015 9.64659 4.15015 6.37068 4.14957C6.27721 4.14957 6.18201 4.15361 6.09086 4.1363C5.74296 4.06995 5.50121 3.74628 5.53121 3.39781C5.56064 3.05683 5.83988 2.78913 6.18951 2.76951C6.25413 2.76605 6.31933 2.76836 6.38395 2.76836C9.96219 2.76836 13.541 2.76836 17.1192 2.76836C17.7695 2.76836 18.0401 3.08222 17.9333 3.72263C17.4862 6.41814 17.0373 9.11307 16.5879 11.8086C16.5163 12.2384 16.2538 12.4438 15.7801 12.4438C12.1875 12.4444 8.59424 12.4438 5.00157 12.4444C4.90811 12.4444 4.81291 12.4392 4.72175 12.4542C4.3727 12.5125 4.12519 12.8304 4.14827 13.1817C4.17019 13.521 4.44886 13.799 4.79387 13.8239C4.86541 13.8291 4.93753 13.8262 5.00965 13.8262C6.78089 13.8262 8.55212 13.8244 10.3234 13.8273C10.8495 13.8279 11.1911 14.2993 11.0111 14.7654C10.9061 15.0383 10.6545 15.2062 10.3332 15.208C9.69967 15.2108 9.06618 15.2085 8.43212 15.2085C8.35423 15.208 8.27576 15.208 8.18345 15.208ZM6.9107 15.8899C6.90666 15.5166 6.58992 15.2057 6.21663 15.2091C5.83873 15.2126 5.53121 15.5207 5.53064 15.8974C5.52948 16.2822 5.84969 16.5967 6.23509 16.5886C6.61069 16.5811 6.91416 16.2672 6.9107 15.8899Z" fill="white"/>
<path d="M14.5127 17.9749C13.3674 17.9714 12.4408 17.0437 12.4414 15.9008C12.442 14.7596 13.3772 13.8261 14.5161 13.8301C15.6689 13.8341 16.5943 14.7711 16.5879 15.9267C16.5816 17.0524 15.6441 17.9778 14.5127 17.9749ZM15.205 15.9036C15.205 15.5263 14.8986 15.2165 14.5213 15.2125C14.1365 15.2084 13.8197 15.5263 13.8244 15.9111C13.829 16.2873 14.1405 16.5931 14.5184 16.5919C14.8923 16.5914 15.2056 16.2775 15.205 15.9036Z" fill="white"/>
</svg>
