<svg width="24" height="24" viewBox="0 0 24 24" fill="none" xmlns="http://www.w3.org/2000/svg">
<path d="M0 12.328C0 12.1092 0 11.8903 0 11.6719C0.141367 10.9717 0.593645 10.4809 1.08115 9.99525C4.05455 7.03688 7.02044 4.07099 9.97881 1.09806C10.4691 0.605388 10.9618 0.142306 11.6715 0C11.8903 0 12.1092 0 12.3276 0C13.0386 0.139488 13.529 0.606328 14.0183 1.09806C17.0659 4.15835 20.1229 7.20924 23.1767 10.2634C23.2762 10.363 23.3772 10.4611 23.4678 10.5682C24.5645 11.8593 23.8638 13.8521 22.1998 14.163C21.9508 14.2095 21.6935 14.2081 21.4239 14.2297C21.4239 14.333 21.4239 14.4255 21.4239 14.518C21.4239 16.7827 21.4258 19.0479 21.423 21.3126C21.4211 22.8859 20.3103 23.9962 18.7398 23.999C17.545 24.0009 16.3497 23.9995 15.1549 23.9995C14.565 23.9995 14.3034 23.7351 14.3034 23.1377C14.3029 21.3412 14.3044 19.5453 14.3025 17.7488C14.3015 16.949 13.8197 16.4681 13.018 16.4652C12.3543 16.4629 11.6898 16.4831 11.0266 16.4601C10.2132 16.4314 9.67165 17.0124 9.6834 17.793C9.71111 19.581 9.69279 21.3699 9.69185 23.1583C9.69138 23.7337 9.42227 23.9995 8.84271 23.9995C7.6634 24 6.48409 24 5.30478 23.9995C3.67037 23.9986 2.57325 22.9028 2.57231 21.268C2.57137 19.0108 2.57184 16.7536 2.57184 14.4969C2.57184 14.4063 2.57184 14.3156 2.57184 14.2363C2.52535 14.2203 2.51126 14.2114 2.4967 14.2109C2.37975 14.2081 2.26234 14.2109 2.14539 14.2048C1.28686 14.1602 0.647186 13.7581 0.24422 13.002C0.134789 12.793 0.0803114 12.5535 0 12.328Z" fill="black"/>
</svg>
