<svg width="17" height="16" viewBox="0 0 17 16" fill="none" xmlns="http://www.w3.org/2000/svg">
<path d="M0 8.4983C0 8.1647 0 7.83151 0 7.49791C0.00918558 7.44739 0.0200413 7.39728 0.0279743 7.34635C0.087263 6.96139 0.11983 6.56975 0.209181 6.19147C1.22168 1.90222 5.39444 -0.734042 9.71083 0.181176C13.2444 0.930218 15.8856 4.07419 15.9996 7.68204C16.0664 9.80349 15.4126 11.6807 14.0118 13.2781C12.778 14.6852 11.2273 15.5507 9.38182 15.8785C9.0908 15.9303 8.79645 15.9599 8.50334 16C8.16974 16 7.83655 16 7.50295 16C7.46287 15.9912 7.4232 15.9775 7.3827 15.9741C6.53011 15.9106 5.70341 15.7282 4.92222 15.3808C2.28721 14.2096 0.678898 12.2109 0.122335 9.3772C0.0655517 9.08743 0.0400825 8.79141 0 8.4983ZM8.00189 1.24712C4.27505 1.24796 1.25675 4.26291 1.25049 7.99101C1.24423 11.7199 4.27213 14.7499 8.00356 14.7495C11.7304 14.7491 14.7487 11.7337 14.755 8.0052C14.7612 4.27544 11.7342 1.24629 8.00189 1.24712Z" fill="#B338FF"/>
<path d="M7.37918 9.33565C7.37918 8.68515 7.37834 8.03422 7.3796 7.38372C7.38001 6.98331 7.64681 6.69354 8.00923 6.6973C8.36872 6.70106 8.62925 6.98456 8.62925 7.37787C8.63009 8.68431 8.63009 9.99075 8.62925 11.2976C8.62884 11.6943 8.37164 11.9711 8.00714 11.9723C7.64222 11.9736 7.38001 11.6959 7.3796 11.3035C7.37834 10.6475 7.37918 9.99159 7.37918 9.33565Z" fill="#B338FF"/>
<path d="M8.01165 4.2422C8.47803 4.24471 8.85171 4.62298 8.84837 5.0902C8.84503 5.55282 8.45966 5.93276 7.99787 5.92817C7.53525 5.924 7.15823 5.53987 7.16115 5.07642C7.16407 4.61088 7.54235 4.23969 8.01165 4.2422Z" fill="#B338FF"/>
</svg>
