<svg width="14" height="10" viewBox="0 0 14 10" fill="none" xmlns="http://www.w3.org/2000/svg">
<g clip-path="url(#clip0_1066_4428)">
<path d="M3.18467 5.08604C3.26396 5.09002 3.30222 5.09401 3.34087 5.09401C5.31771 5.09441 7.29496 5.09759 9.2718 5.09281C10.2437 5.09042 11.0048 4.4417 11.1741 3.48536C11.1964 3.35904 11.1968 3.22754 11.1972 3.09843C11.1992 2.29152 11.196 1.485 11.1992 0.678085C11.2004 0.27124 11.4734 -0.00689719 11.8531 -0.00012308C12.1755 0.0054556 12.4672 0.252511 12.4684 0.574481C12.4724 1.57984 12.5058 2.58878 12.4353 3.58976C12.3369 4.98961 11.0905 6.19779 9.6918 6.34283C9.51886 6.36076 9.34433 6.37033 9.17059 6.37073C7.23837 6.37272 5.30616 6.37192 3.37394 6.37192C3.32095 6.37192 3.26795 6.37192 3.18666 6.37192C3.23806 6.42851 3.26874 6.46437 3.30222 6.49784C3.74572 6.94175 4.19321 7.38166 4.63154 7.83035C4.9802 8.18778 4.83317 8.76199 4.36256 8.89428C4.10475 8.96681 3.88638 8.88791 3.69751 8.69823C2.98822 7.98496 2.27574 7.27447 1.56446 6.56359C1.44452 6.44405 1.32338 6.3257 1.20304 6.20655C0.923707 5.92961 0.921715 5.5403 1.19826 5.26416C2.02669 4.43772 2.85632 3.61247 3.68316 2.78404C3.86048 2.60632 4.06092 2.50749 4.31355 2.56089C4.55104 2.6111 4.71522 2.75614 4.79093 2.98726C4.87102 3.23153 4.81244 3.45188 4.63592 3.63478C4.4044 3.87467 4.16572 4.10817 3.92942 4.34407C3.69113 4.58236 3.45125 4.82065 3.18467 5.08604Z" fill="black"/>
</g>
<defs>
<clipPath id="clip0_1066_4428">
<rect width="12.8765" height="10" fill="white" transform="translate(0.993164)"/>
</clipPath>
</defs>
</svg>
