<svg width="81" height="38" viewBox="0 0 81 38" fill="none" xmlns="http://www.w3.org/2000/svg">
<path d="M34.2905 19.0365L34.1484 22.4361C34.1484 22.4361 36.9112 22.8607 40.0986 19.6733C40.9477 18.9647 43.3562 16.1316 43.3562 16.1316L42.2932 15.8491L42.6475 15.2107L41.3739 15.4246C41.3739 15.4246 40.5934 15.2107 40.2407 15.565C39.888 15.9194 37.4142 18.9647 34.2905 19.0365Z" fill="#EFB58E"/>
<path d="M23.8141 27.8892C23.8141 27.8892 23.8141 32.9185 23.8843 33.4132C23.9546 33.908 27.7804 34.6183 28.489 34.1219C28.4172 33.8394 27.426 33.0605 27.5681 32.5641C27.7102 32.0678 27.8506 27.5349 27.8506 27.5349H24.7922C24.4342 27.5346 24.0875 27.66 23.8125 27.8892H23.8141Z" fill="#EFB58E"/>
<path d="M7.38415 12.7355L7.17188 17.0561C7.17188 17.0561 9.78446 16.7017 9.72241 18.6889C9.66036 20.6761 8.08955 20.8117 7.38415 21.0256C9.22602 22.0886 10.5013 22.7254 8.80148 24.5673C10.5715 25.7005 14.3255 27.8248 14.8921 27.9669C15.4587 28.1089 23.0368 27.6125 24.9489 27.6828C26.861 27.753 33.1639 27.2582 33.5182 26.9741C33.8725 26.69 34.4391 13.5176 34.3689 12.8808C34.2987 12.244 26.2895 7.28172 26.0103 6.85718C25.3734 7.56584 15.3966 15.1015 14.1834 15.3563C12.9702 15.611 7.38415 12.7355 7.38415 12.7355Z" fill="#E53C3C"/>
<path d="M5.11661 10.9633C4.73451 11.734 12.8368 15.4961 13.7577 15.3475C14.6787 15.199 25.2303 7.3465 25.9389 6.85664C26.9301 7.49509 33.793 12.0932 34.2257 12.6647C34.3109 13.0848 34.3584 13.5116 34.3678 13.94C34.3678 13.94 36.2799 14.2225 36.6342 13.94C36.9885 13.6575 36.7746 13.0893 35.7133 12.1684C34.6519 11.2474 26.6476 5.58137 25.7267 5.08498C24.8057 4.58859 18.9274 2.47239 18.0783 2.32217C17.2292 2.17195 5.55095 10.1224 5.11661 10.9633Z" fill="#914E37"/>
<path d="M11.9192 4.89643C11.9192 4.89643 13.2419 4.14204 13.8085 4.1894C14.3751 4.23675 15.5524 4.56985 15.7401 5.03685C15.9279 5.50385 15.7875 8.48384 15.6471 8.7206C15.5066 8.95737 13.8999 9.99424 13.5243 9.94688C13.1488 9.89953 11.8376 9.24312 11.6367 9.05044C11.4359 8.85776 11.9192 4.89643 11.9192 4.89643Z" fill="#E53C3C"/>
<path d="M17.9715 17.3726C18.0466 16.2785 19.0296 15.725 20.4844 15.6727C21.9393 15.6205 23.2113 16.2393 23.097 17.4085C22.9827 18.5776 21.5523 19.2503 20.4093 19.2144C19.2663 19.1785 17.8996 18.3996 17.9715 17.3726Z" fill="white"/>
<path d="M26.6161 17.3719C26.6912 16.2779 27.6758 15.7244 29.1307 15.6721C30.5856 15.6199 31.6796 16.4167 31.58 17.5842C31.4804 18.7517 30.2002 19.2497 29.067 19.2171C27.9338 19.1844 26.5426 18.399 26.6161 17.3719Z" fill="white"/>
<path d="M20.0834 17.4081C20.1226 18.2588 20.5553 19.0132 21.4517 18.9659C22.3482 18.9185 23.0095 18.494 23.0568 17.4555C23.1042 16.417 22.113 15.9451 21.6411 15.9451C21.1692 15.9451 20.0377 16.417 20.0834 17.4081Z" fill="#914E37"/>
<path d="M28.5835 17.4081C28.6243 18.2588 29.057 19.0132 29.9534 18.9659C30.8499 18.9185 31.5112 18.494 31.5586 17.4555C31.6059 16.417 30.6148 15.9451 30.1429 15.9451C29.671 15.9451 28.5361 16.417 28.5835 17.4081Z" fill="#914E37"/>
<path d="M13.7579 21.3752C13.5717 20.8544 12.125 19.4632 12.125 18.9668C12.125 18.4704 12.6916 17.6931 13.2582 17.7633C13.8248 17.8336 14.4388 19.6803 14.3914 20.242C14.3441 20.8037 15.0299 21.305 15.3124 21.7296C15.5948 22.1541 18.5781 26.5449 21.7573 28.3868C24.9365 30.2287 27.2813 30.7953 28.4863 30.7953C29.6914 30.7953 30.6809 30.0147 31.3194 27.1834C31.8843 27.1834 32.5228 27.0413 32.3807 27.3956C32.2387 27.75 31.6018 30.0082 31.3896 30.5111C32.2387 30.6532 35.0015 30.4409 36.347 28.9534C37.6924 27.4658 39.1881 26.6151 40.3165 22.0121C40.3165 21.8716 40.4585 21.7296 40.5989 21.305C40.7394 20.8805 40.9533 19.9579 40.9533 19.9579C40.9533 19.9579 39.6241 19.4223 39.7221 18.1618C39.8201 16.9012 40.821 16.0015 41.8742 16.1337C42.9274 16.266 43.9284 17.267 43.6442 18.4002C43.3601 19.5334 42.7249 19.8175 41.8742 20.033C41.804 20.6699 41.6619 22.0153 41.5199 22.5117C41.3778 23.0081 39.6796 27.6814 37.908 29.2391C36.1363 30.7969 33.5874 32.6355 27.2845 31.6444C24.7356 31.2198 20.9164 29.5216 20.1326 28.6693C19.3488 27.8169 14.4665 23.3576 13.7579 21.3752Z" fill="white"/>
<path d="M13.192 27.0408C13.7586 27.3951 14.1831 28.1021 17.2284 27.9617C17.0161 29.6615 16.9459 32.9191 16.9459 32.9191C16.9459 32.9191 18.1494 33.9805 17.9371 34.4066C17.7248 34.8328 13.1218 34.2646 13.0499 33.5559C12.9781 32.8472 13.192 27.0408 13.192 27.0408Z" fill="#EFB58E"/>
<path d="M8.44737 17.1262C9.40096 17.2552 10.5015 18.9665 9.15603 20.2417C8.2351 20.8083 7.1721 21.0206 6.6055 20.5961C8.23836 21.3047 9.86307 22.5784 9.36831 23.7116C8.87355 24.8448 6.39322 25.6237 5.26001 24.1361C5.26001 23.5695 6.11074 23.4291 6.11074 23.4291C6.11074 23.4291 3.13565 23.6414 2.63926 23.0046C2.14287 22.3677 1.29378 21.0206 2.49884 19.8874C3.70389 18.7542 6.88962 16.9123 8.44737 17.1262Z" fill="#EFB58E"/>
<path d="M34.6028 14.1687C34.5147 15.617 34.4967 17.036 34.4543 18.4811C34.4787 18.997 35.6152 18.6607 35.9108 18.53C37.5943 17.8981 38.8793 16.6637 40.1562 15.4554C40.4991 15.1402 40.9727 15.2545 41.3809 15.1549C41.8707 15.0308 42.3606 14.8692 42.8798 14.9475C43.5036 15.0455 42.5712 15.6513 43.3419 15.6578C43.4579 15.6758 43.5754 15.6856 43.6914 15.7052C44.1241 15.7754 43.9673 16.2179 43.6914 16.4041C43.3648 16.649 43.9314 17.4703 43.9118 17.8736C43.9973 18.3552 43.9005 18.8513 43.6403 19.2654C43.3802 19.6795 42.9752 19.982 42.5043 20.1139C41.8511 20.2674 41.9344 20.8781 41.8397 21.3876C41.6601 24.1324 40.1775 26.6356 38.6344 28.8514C36.9297 31.1374 33.8664 32.0453 31.1232 32.2151C30.2757 32.2151 29.4283 32.1612 28.5841 32.109C28.0322 32.0747 28.0077 32.091 27.9865 32.6348C27.9114 33.1703 28.4257 33.4169 28.6592 33.8267C29.4756 35.4596 24.9036 34.3476 24.2194 34.1533C23.0764 33.812 23.643 32.0894 23.5663 31.1668C23.5835 31.0812 23.567 30.9923 23.5201 30.9186C23.4732 30.845 23.3997 30.7923 23.3148 30.7717C21.904 30.1867 20.5843 29.4026 19.396 28.4432C19.2866 28.356 19.1521 28.3062 19.0122 28.3011C18.4962 28.3256 17.9786 28.3485 17.4659 28.4171C17.2879 29.805 17.2847 31.1929 17.2046 32.5923C17.1982 32.6733 17.2107 32.7546 17.241 32.83C17.2713 32.9053 17.3187 32.9727 17.3794 33.0266C17.786 33.4071 18.9975 34.4407 17.946 34.7248C16.453 34.8233 14.9543 34.6659 13.5144 34.2595C12.2391 33.9557 12.8482 32.0339 12.7453 31.0558C12.7698 29.9879 12.8073 28.92 12.8433 27.8537C12.8563 27.4504 12.6538 27.2267 12.3109 27.0373C11.3639 26.5115 10.4364 25.9498 9.50078 25.4044C8.97663 25.1138 8.66802 24.8558 8.04753 25.0974C7.41724 25.2379 6.71348 25.424 6.11585 25.0713C5.63339 24.8126 5.21668 24.4467 4.89773 24.0018C4.69199 23.3388 3.50326 24.2108 2.04838 22.8294C1.91093 22.7027 1.79992 22.55 1.72173 22.3801C1.64354 22.2103 1.59973 22.0267 1.59281 21.8399C1.48177 19.1652 4.51401 17.9749 6.60244 17.1731C6.66436 17.16 6.71981 17.1258 6.75939 17.0764C6.79897 17.027 6.82025 16.9654 6.81962 16.9021C6.90452 15.7705 7.00413 14.6406 7.08904 13.509C7.06455 13.2118 7.19354 12.7954 6.93718 12.5815C4.71158 11.2752 3.67145 11.1364 6.40977 9.29129C8.08019 8.16298 9.70326 6.95955 11.4292 5.93248C11.7411 5.57815 11.439 4.88091 11.9027 4.60822C14.5823 3.18436 13.7805 4.40738 14.948 3.92895C15.6926 3.46032 16.4584 3.02434 17.2046 2.55571C17.9509 2.08708 18.8375 2.36793 19.6197 2.60796C21.7718 3.27907 23.8488 4.15102 25.9405 4.98705C26.8157 5.32179 27.446 6.06801 28.2526 6.53827C29.3907 7.34654 30.519 8.14665 31.6572 8.94349C33.3717 10.1028 35.0568 11.3013 36.6766 12.588C37.1093 12.9228 37.3036 13.362 37.1664 13.9156C37.0652 14.6406 35.1629 14.0854 34.6028 14.1687ZM7.62952 16.9037C9.24769 16.4334 10.0282 17.3332 10.0233 18.9154C10.056 20.1401 9.41261 20.6364 8.32675 21.0381C9.6608 21.7615 10.4838 23.2376 9.30647 24.4818C10.8904 25.4436 12.4955 26.3449 14.1087 27.2577C15.4705 27.8064 17.0479 27.7051 18.4865 27.6137C17.2593 26.3973 16.1226 25.0929 15.0852 23.7111C14.9219 24.766 15.015 25.8551 14.7374 26.8838H14.6557C14.4712 26.6225 14.4778 26.3074 14.4778 25.9988C14.4859 25.0338 14.5055 24.0687 14.5088 23.1053C14.4043 22.4979 13.9095 22.0162 13.627 21.4725C13.2678 20.9304 12.6996 20.5728 12.3877 19.9768C12.0023 19.3726 11.7901 18.4598 12.3142 17.8851C12.4443 17.7651 12.6005 17.6769 12.7705 17.6275C12.9404 17.5782 13.1196 17.569 13.2937 17.6006C13.4678 17.6323 13.6322 17.704 13.774 17.81C13.9157 17.916 14.0308 18.0535 14.1104 18.2116C14.2538 18.5779 14.3786 18.9513 14.4843 19.3302C14.6868 18.2525 14.3765 17.0605 14.7309 16.0236C15.4052 15.2708 14.8827 20.2005 14.9578 20.5809C15.5065 22.0293 20.0491 27.8341 21.6199 27.4651C23.2087 27.3655 24.7926 27.1891 26.3863 27.1549C28.5678 27.0634 30.746 26.8168 32.9324 26.8005C33.4304 26.7826 33.5415 26.6797 33.5562 26.1882C33.5801 24.5118 33.659 22.8381 33.7929 21.1671C33.8713 18.4876 33.8958 15.8064 34.0166 13.1269C34.025 13.0514 34.0126 12.9751 33.981 12.9061C33.9494 12.8371 33.8996 12.778 33.837 12.735C32.8116 12.0165 31.791 11.2915 30.7656 10.5715C29.2601 9.51445 27.7541 8.45852 26.2475 7.40369C26.2207 7.37608 26.1885 7.35436 26.1528 7.33993C26.1172 7.32551 26.0789 7.31869 26.0405 7.31992C26.002 7.32115 25.9643 7.3304 25.9296 7.34707C25.895 7.36375 25.8642 7.38749 25.8392 7.41676C24.4138 8.78673 22.616 9.67828 21.0354 10.8458C19.7438 11.7749 18.4816 12.7464 17.1834 13.6657C15.6485 14.6014 13.9438 16.3649 12.0628 15.2186C10.7565 14.4985 9.39465 13.8454 8.0557 13.1693C7.77974 12.9979 7.74545 13.2396 7.73892 13.4714C7.6883 14.6226 7.60502 15.7509 7.62952 16.9037ZM15.3383 4.34697C15.7645 4.60986 16.2413 4.73396 16.1645 5.31199C16.0959 6.27429 16.0333 7.23714 15.9767 8.20053C15.9667 8.40677 15.9066 8.60746 15.8016 8.78526C15.6966 8.96307 15.5499 9.11264 15.3742 9.22107C14.5578 9.75176 13.6515 10.5992 12.6685 9.93627C12.2456 9.61133 11.4292 9.50682 11.4292 8.85694C11.4292 8.20706 11.4733 7.59311 11.5108 6.96445C11.5108 6.6934 11.4537 6.66727 11.23 6.81096C9.80776 7.70904 8.42636 8.67243 7.01719 9.58684C6.51887 9.90931 6.05101 10.2766 5.61946 10.6841C5.1296 11.1168 6.20566 11.3863 6.46365 11.6051C8.58638 12.6844 10.7336 13.7441 12.8416 14.8708C13.3707 15.1516 13.8867 15.1729 14.3782 14.8414C16.318 13.546 18.2089 12.1907 20.0507 10.7756C21.4354 9.77298 22.8266 8.79163 24.226 7.79885C24.9004 7.31878 25.5715 6.83219 26.2475 6.35376C26.574 6.06637 25.9682 5.68755 25.7266 5.57488C23.3638 4.60333 21.006 3.59911 18.5746 2.80717C17.8529 2.53938 16.1057 3.96161 15.3383 4.34697ZM34.3269 22.6481C34.2257 23.9283 34.2028 25.2362 34.1375 26.5246C34.1375 27.2022 33.5154 27.341 32.9602 27.3965C32.9046 27.399 32.8515 27.42 32.8092 27.456C32.7669 27.4921 32.7379 27.5413 32.7267 27.5957C32.4931 28.4359 32.19 29.2552 31.8204 30.045C31.4204 30.6982 33.0826 30.0744 33.3586 30.1071C34.1714 29.9774 34.9492 29.6835 35.6446 29.2433C38.0449 27.4765 39.4492 24.6549 40.1285 21.8137C40.1677 21.6505 40.215 21.5133 40.3979 21.4627C40.5922 21.1867 40.5693 20.7556 40.6673 20.4258C40.7212 20.1319 40.7147 20.1368 40.4452 20.0274C40.3968 20.0011 40.3403 19.9938 40.2868 20.0071C40.2333 20.0204 40.1867 20.0533 40.1562 20.0992C39.4868 20.7116 38.6866 21.1933 37.9355 21.6913C36.8448 22.3852 35.5956 22.4277 34.3269 22.6481ZM5.73049 24.1994L5.70763 24.2483C5.98032 24.4835 6.38527 24.5749 6.71511 24.7202C7.10863 24.8639 7.48419 24.7007 7.86792 24.637C8.82314 24.5292 9.69346 23.2147 9.01092 22.4081C8.33655 21.479 7.10373 21.3549 6.28567 20.6381C6.00808 20.176 6.75267 20.354 6.96168 20.4748C7.47929 20.7377 8.04263 20.5107 8.55045 20.3425C9.73755 20.0862 9.96615 17.4915 8.56025 17.4605C6.42283 17.6238 4.15968 18.3782 2.7848 20.1286C0.71106 23.1364 4.63811 23.5332 6.71838 22.7804C7.57563 22.4538 7.1217 23.6866 6.58612 23.7928C6.48161 23.8303 6.38364 23.8842 6.25954 23.943C6.37226 24.0273 6.46997 24.13 6.54856 24.2467C6.2922 24.3724 5.99665 24.2386 5.73049 24.1994ZM30.1272 31.7514C36.5427 31.7008 39.4345 28.3975 41.2307 22.5632C41.3694 22.1028 41.2633 21.9868 40.7784 22.0162C40.4093 22.0162 40.4779 22.4767 40.3832 22.7281C39.5798 25.6934 37.947 28.7861 35.0666 30.1593C34.5473 30.3847 30.6905 31.5914 31.0857 30.3226C31.4977 29.5373 31.8197 28.708 32.0458 27.8505C32.227 27.4145 31.7192 27.2953 31.5559 27.6872C30.9975 29.0392 30.6317 31.0133 28.8013 31.0149C23.728 30.9398 19.3013 27.4586 16.3262 23.5952C15.6306 22.6922 15.0019 21.7386 14.3455 20.8063C14.2377 20.6528 14.1218 20.6103 13.9846 20.6903C13.2058 20.7948 16.6413 24.815 16.9434 25.2281C20.072 29.2384 25.0228 31.7563 30.1272 31.7514ZM17.4398 34.0798L17.4806 33.9917C17.1753 33.5949 16.5744 33.3157 16.558 32.7703C16.5417 32.2249 16.5727 31.6763 16.6087 31.1374C16.6674 30.2606 16.7458 29.3837 16.8209 28.5069C16.8307 28.3877 16.7866 28.3436 16.674 28.3321C15.7334 28.226 14.739 28.4383 13.8752 27.9648C13.3103 27.6235 13.4295 31.1897 13.3495 31.6175C13.4017 31.993 13.2352 33.639 13.676 33.6324C14.9151 33.8912 16.1745 34.0409 17.4398 34.0798ZM34.4624 19.384C34.451 20.109 34.3987 21.0741 34.3824 21.8774C34.389 21.9048 34.4025 21.93 34.4217 21.9506C34.4408 21.9712 34.465 21.9865 34.4918 21.995C35.708 22.0468 36.909 21.7099 37.9208 21.0332C38.4858 20.6462 39.0263 20.2168 39.57 19.8086C39.8639 19.5849 39.8492 19.5718 39.6778 19.2485C38.881 17.9226 39.8786 16.5216 41.0723 15.8913C40.4746 15.6088 39.9293 16.3224 39.5684 16.7274C38.3144 18.2623 36.4839 19.3808 34.4624 19.3775V19.384ZM14.0777 9.24393L14.1577 9.27659C14.5104 9.1133 14.8207 8.87001 15.1587 8.67896C15.2234 8.64785 15.2787 8.60022 15.3192 8.54087C15.3596 8.48153 15.3836 8.41257 15.3889 8.34096C15.4624 7.55555 15.5375 6.77177 15.6093 5.98473C15.6093 5.81001 15.6273 5.44262 15.3464 5.58305C14.7129 5.83614 14.0206 6.15782 13.3576 5.81491C13.0474 5.67612 12.742 5.53079 12.4334 5.3871C12.1689 5.26464 12.1068 5.28586 12.0889 5.58305C12.0203 6.61012 11.9256 7.63719 11.9256 8.66753C11.9795 9.05452 12.8253 9.25536 13.1306 9.51662C13.485 9.72073 13.5617 9.67991 13.5797 9.26516C13.6172 8.35892 13.6597 7.45431 13.7021 6.5497C13.7021 6.38642 13.7332 6.15618 13.9259 6.13496C14.3831 6.16271 13.9797 8.73121 14.0777 9.24393ZM36.3451 13.6527C36.4039 13.6184 36.5623 13.5759 36.5754 13.5073C36.5717 13.4172 36.5453 13.3294 36.4984 13.2523C36.4516 13.1752 36.3859 13.1112 36.3076 13.0665C35.0356 12.1423 33.775 11.2017 32.5226 10.2563C30.7471 9.02622 28.9673 7.80429 27.1831 6.59053C26.8696 6.37172 26.8255 6.48439 26.6312 6.72115C26.6117 6.74147 26.5973 6.76615 26.5893 6.79315C26.5813 6.82014 26.5799 6.84865 26.5852 6.87631C26.5905 6.90397 26.6023 6.92996 26.6197 6.95211C26.637 6.97426 26.6595 6.99193 26.6851 7.00364C28.6102 8.39158 30.604 9.67011 32.5405 11.0499C33.1937 11.6834 34.8576 12.1798 34.6633 13.233C34.5604 13.5874 35.994 13.5367 36.3451 13.6543V13.6527ZM28.0648 34.0455L28.0942 33.9802C27.8346 33.5737 27.335 33.3059 27.3692 32.7719C27.3154 32.5221 27.5064 32.0877 27.206 31.9734C26.2834 31.7367 25.3641 31.4917 24.4399 31.2599C24.0072 31.2697 24.2766 32.5662 24.2309 32.9042C24.2619 33.5932 24.3942 33.732 25.0816 33.8169C26.0728 33.9623 27.0606 34.1043 28.0648 34.0455ZM24.3501 27.9321C24.4089 28.3207 24.1999 29.4017 24.5003 29.5225C25.4523 29.9121 26.4355 30.2208 27.4395 30.4451V27.7476L24.3501 27.9321ZM28.2036 27.6431C28.1563 28.5542 28.0959 29.418 28.0828 30.3177C28.0828 30.3765 28.1334 30.481 28.1791 30.481C29.8561 31.0035 30.5288 29.0539 30.9044 27.808C30.9501 27.5631 30.9142 27.4978 30.6693 27.5059C29.8479 27.5516 29.0217 27.5549 28.2036 27.6431ZM41.7042 19.7302L41.7123 19.691C44.5535 19.8184 43.6506 15.4799 41.0804 16.4253C39.3316 17.3642 39.6043 19.6208 41.7042 19.7302ZM14.05 19.9866C13.9487 19.4298 13.8165 17.6336 12.8759 18.1725C12.0301 18.8762 12.9543 19.7825 13.4246 20.4095C13.6401 20.705 14.0189 20.2658 14.05 19.9866ZM12.6065 4.83846V4.9201C13.6907 5.49324 14.1071 5.59938 15.2077 5.00011C15.2077 5.00011 15.2077 4.97725 15.2077 4.9397C14.3357 4.54618 13.4964 4.28492 12.6065 4.83846ZM23.5647 28.1705C23.1107 28.2146 22.6143 28.0725 22.2159 28.2407C22.5784 28.6195 23.1091 28.7649 23.5647 29.0571V28.1705ZM41.5834 20.5826C41.5719 20.4095 41.5834 20.2854 41.4201 20.256C41.2192 20.2152 41.0935 20.256 41.0478 20.4372C41.0478 20.692 40.6869 21.4643 41.0478 21.5182C41.5278 21.6782 41.4642 20.8357 41.5834 20.5826ZM42.3279 15.3819C42.1516 15.4929 41.812 15.488 41.8103 15.7085C41.923 15.7476 42.0634 15.8326 42.15 15.795C42.2659 15.746 42.341 15.6023 42.4259 15.4913C42.4308 15.4848 42.3639 15.4227 42.3279 15.3819Z" fill="black"/>
<path d="M29.2082 19.4833C27.9786 19.5682 26.3343 18.9935 26.3441 17.5402C26.091 14.8395 30.6581 14.8133 31.6771 16.6536C32.3743 18.2685 30.8329 19.7381 29.2082 19.4833ZM29.9707 18.6816C31.8012 18.5657 31.5677 16.2192 29.8433 16.2062C28.5028 16.1964 28.4685 18.7518 29.9707 18.6816ZM28.9632 18.9592C28.0684 17.9599 27.9215 16.9801 28.8391 15.9449C27.8594 15.7506 26.8797 16.3025 26.834 17.3443C26.7768 17.8505 26.9548 18.324 27.4659 18.564C27.9574 18.7649 28.4113 19.031 28.9632 18.9592Z" fill="black"/>
<path d="M20.5371 19.4457C16.0745 19.3918 17.131 14.1846 21.9414 15.6215C24.634 16.6813 23.0861 19.787 20.5371 19.4457ZM20.3592 17.4863C20.3583 17.6981 20.4147 17.9063 20.5224 18.0888C20.6071 18.2278 20.7193 18.348 20.8521 18.4421C20.9849 18.5362 21.1356 18.6021 21.2948 18.6358C21.5256 18.6831 21.765 18.6662 21.987 18.5871C22.2089 18.5079 22.4049 18.3694 22.5537 18.1868C22.6968 17.9997 22.7844 17.7761 22.8063 17.5416C22.8283 17.3072 22.7837 17.0712 22.6778 16.8609C22.1569 15.8665 20.7445 16.1032 20.4261 17.1156C20.3863 17.2337 20.3637 17.3568 20.3592 17.4814V17.4863ZM20.333 18.8889C20.0007 18.5163 19.8104 18.0385 19.7955 17.5395C19.7805 17.0405 19.942 16.5522 20.2514 16.1604C20.369 16.0069 20.3428 15.9399 20.1502 15.9285C17.4886 15.8975 17.6813 19.0538 20.333 18.884V18.8889Z" fill="black"/>
<path d="M25.0695 23.9653C21.0216 23.7383 22.9811 19.1859 23.048 21.7968C22.9909 22.8745 24.2237 23.3562 25.125 23.384C26.2876 23.4036 26.7808 22.205 26.9212 21.2188C26.9241 21.1867 26.9338 21.1556 26.9496 21.1274C26.9653 21.0993 26.9868 21.0748 27.0126 21.0555C27.1449 20.9575 27.2837 20.9183 27.3392 21.1502C27.4633 22.5136 26.6142 24.0567 25.0695 23.9653Z" fill="black"/>
<path d="M29.4565 13.3728C29.9317 13.4087 30.5326 13.4512 30.8902 13.7451C30.9284 13.777 30.9552 13.8205 30.9664 13.8691C30.9776 13.9176 30.9727 13.9684 30.9524 14.0139C30.932 14.0594 30.8974 14.097 30.8538 14.1209C30.8101 14.1449 30.7598 14.154 30.7106 14.1468C30.5563 14.1153 30.4037 14.0761 30.2533 14.0292C30.0245 13.9415 29.7794 13.9046 29.5349 13.9213C29.2904 13.9379 29.0525 14.0076 28.8377 14.1256C28.6646 14.2317 28.2988 14.3003 28.1845 14.1125C28.1518 13.5034 29.0042 13.3875 29.4565 13.3728Z" fill="black"/>
<path d="M20.3619 13.45C20.6329 13.3847 22.2985 13.7946 21.6388 14.1391C21.1065 14.1767 20.6052 13.8762 20.0778 14.0134C17.8228 14.9392 19.018 13.388 20.3619 13.45Z" fill="black"/>
<path d="M41.7381 19.2669C39.986 19.2669 40.2473 16.8176 41.7691 16.7654C43.3269 16.8176 43.5244 19.3225 41.7381 19.2669ZM42.468 18.0896C42.468 17.0348 41.0196 17.2324 40.987 18.1941C41.0523 18.9844 42.5512 18.9567 42.468 18.0815V18.0896Z" fill="black"/>
<path d="M45.5566 18.2561L48.3178 16.2738C48.3178 16.2738 48.0353 10.6796 48.4599 10.1832C48.8844 9.6868 49.6633 8.76586 51.0725 8.83771C52.4816 8.90956 75.7892 8.90792 76.4978 8.90792C77.2065 8.90792 79.0467 9.61659 78.9765 12.8742C78.9063 16.1317 78.9047 25.0553 78.7643 26.1183C78.6238 27.1813 78.1977 28.5268 75.9312 28.3145C73.6648 28.1023 51.4268 28.3145 50.7851 28.3145C50.1434 28.3145 48.2362 27.9602 48.2362 26.0481C48.2362 24.136 47.9521 20.8066 48.0941 20.24C47.4704 19.6734 45.5566 18.5402 45.5566 18.2561Z" fill="white"/>
<path d="M63.5498 8.50197C68.0664 8.47693 72.584 8.48564 77.1026 8.5281C78.8367 8.5281 79.2597 10.4712 79.3103 11.8689C79.405 13.7663 79.4491 15.6621 79.3609 17.5611C79.307 20.4431 79.2221 23.3251 79.1356 26.2153C79.16 28.4523 77.0569 28.7283 75.2934 28.5993C69.8772 28.583 64.4593 28.5699 59.0464 28.7299C55.8705 28.7299 52.6586 28.8752 49.5219 28.2939C48.6026 28.1209 48.1209 27.5657 48.0115 26.6431C47.8286 25.1082 47.8808 23.5684 47.8988 22.0286C47.8123 21.4735 48.2025 20.4546 47.6441 20.1378C43.9848 18.1669 44.6625 18.3629 47.7845 16.2581C47.8198 16.2289 47.8488 16.1928 47.8698 16.1522C47.8909 16.1115 47.9035 16.067 47.907 16.0213C47.9527 15.2604 47.9968 14.4979 48.018 13.7353C48.1813 11.6403 47.3649 8.88569 50.2812 8.58361C54.6997 8.44972 59.1264 8.52646 63.5498 8.50197ZM56.9727 9.0947C55.0818 9.06368 53.1877 9.07347 51.2952 9.10613C50.1391 9.05225 48.8214 9.48496 48.6581 10.8713C48.4703 12.6201 48.6679 14.3754 48.5944 16.1291C48.5732 16.9455 46.8228 17.6281 46.2039 18.1963C45.4642 18.647 48.7446 19.3148 48.4817 20.2831C48.4932 28.418 47.7568 28.0458 56.0582 28.0115C60.9405 28.0409 66.0187 27.9445 70.1923 27.9364C71.8334 28.0082 73.4793 27.9559 75.1236 27.9119C76.2274 27.7763 77.9256 28.1209 78.2832 26.728C78.6457 22.2474 78.858 17.7277 78.6833 13.2259C78.4383 10.1234 78.822 9.07511 75.2281 9.09143C69.4396 9.1045 62.7187 9.33963 56.9727 9.0947Z" fill="black"/>
<path d="M52.7813 13.9526V15.5855H55.2877V13.9526H54.6134V13.2341H56.8226V13.9526H56.1564V18.2862H56.8226V19.0063H54.6134V18.2862H55.2877V16.3039H52.7813V18.2862H53.4622V19.0063H51.2578V18.2862H51.911V13.9526H51.2578V13.2341H53.4622V13.9526H52.7813Z" fill="#E53C3C"/>
<path d="M63.2375 16.101C63.2478 16.648 63.1138 17.1881 62.8488 17.6669C62.5995 18.1147 62.2273 18.4819 61.776 18.725C61.2966 18.9786 60.7606 19.1067 60.2183 19.0973C59.6824 19.1071 59.1536 18.9735 58.6867 18.7103C58.244 18.4565 57.8814 18.0837 57.64 17.6342C57.3862 17.1583 57.2575 16.6256 57.2661 16.0863C57.2571 15.5539 57.3883 15.0285 57.6465 14.5628C57.8938 14.1236 58.2578 13.7614 58.6981 13.5161C59.1643 13.2595 59.6895 13.1295 60.2215 13.1389C60.7706 13.129 61.3128 13.263 61.794 13.5276C62.2394 13.7767 62.6069 14.1447 62.8554 14.5906C63.112 15.0522 63.2437 15.5728 63.2375 16.101ZM60.2526 18.3282C60.6288 18.3339 60.998 18.2264 61.3123 18.0196C61.621 17.8163 61.8701 17.5345 62.034 17.2032C62.2034 16.8628 62.2906 16.4876 62.2888 16.1075C62.2917 15.724 62.1991 15.3457 62.0193 15.0069C61.8478 14.6776 61.5906 14.4006 61.2747 14.2052C60.9522 14.0076 60.5802 13.9057 60.202 13.9113C59.8361 13.9052 59.4762 14.0044 59.1651 14.197C58.8629 14.3881 58.6211 14.661 58.4679 14.9841C58.2996 15.3309 58.2147 15.7122 58.2197 16.0977C58.2128 16.498 58.2977 16.8946 58.4679 17.257C58.6213 17.5848 58.8677 17.8602 59.1765 18.049C59.502 18.241 59.8748 18.3378 60.2526 18.3282Z" fill="#E53C3C"/>
<path d="M68.581 13.2341H70.5796V13.9526H69.8873V18.2862H70.5845V19.0063H68.4177V18.2862H69.0986V13.9526L67.1114 19.0618H66.9383L64.9789 13.9526V18.2862H65.614V19.0063H63.5566V18.2862H64.2571V13.9526H63.5566V13.2341H65.534L67.0542 17.184L68.581 13.2341Z" fill="#E53C3C"/>
<path d="M75.5018 14.9176V13.9526H73.0329V15.6736H75.1801V16.3921H73.0329V18.2862H75.5018V17.2347H76.2137V19.0063H71.418V18.2862H72.1609V13.9526H71.418V13.2341H76.2137V14.9176H75.5018Z" fill="#E53C3C"/>
<path d="M55.1904 22.1843C55.1904 22.8636 54.9857 23.3736 54.5764 23.7143C54.1671 24.055 53.5553 24.2259 52.7411 24.227H51.2715V23.7372H51.8022V20.7572H51.2715V20.2673H52.7786C53.5907 20.2673 54.196 20.4208 54.5944 20.7278C54.9928 21.0348 55.1915 21.5203 55.1904 22.1843ZM54.5372 22.2121C54.5476 21.9295 54.487 21.6488 54.3609 21.3956C54.2339 21.1767 54.0348 21.0087 53.7975 20.9205C53.4717 20.8025 53.1266 20.7471 52.7803 20.7572H52.3982V23.7323H52.7754C53.386 23.7323 53.8324 23.6098 54.1143 23.3649C54.3962 23.12 54.5372 22.7335 54.5372 22.2055V22.2121Z" fill="#414042"/>
<path d="M59.7193 22.2316C59.726 22.6081 59.6337 22.9798 59.4515 23.3093C59.2798 23.6169 59.0237 23.869 58.7134 24.036C58.384 24.211 58.0153 24.2992 57.6423 24.2923C57.2743 24.2992 56.9112 24.2073 56.5907 24.0262C56.2869 23.852 56.0384 23.5956 55.8739 23.2865C55.6997 22.959 55.6114 22.5927 55.6175 22.2218C55.6108 21.856 55.701 21.4949 55.8788 21.1752C56.0483 20.8731 56.2981 20.6239 56.6005 20.4551C56.9213 20.2785 57.2827 20.189 57.6488 20.1955C58.0264 20.1883 58.3992 20.2807 58.7298 20.4632C59.0361 20.6341 59.2888 20.8868 59.4597 21.1931C59.635 21.5108 59.7245 21.8688 59.7193 22.2316ZM57.6668 23.7633C57.9254 23.7673 58.1791 23.6933 58.395 23.551C58.6059 23.4092 58.775 23.2135 58.8849 22.9844C59.0009 22.7505 59.0608 22.4927 59.0596 22.2316C59.0614 21.9681 58.9974 21.7082 58.8735 21.4756C58.7556 21.2496 58.5791 21.0595 58.3624 20.9253C58.1408 20.7903 57.8855 20.7207 57.626 20.7245C57.3771 20.7186 57.1319 20.7851 56.92 20.9158C56.7081 21.0465 56.5387 21.2359 56.4323 21.4609C56.3197 21.7002 56.2638 21.9623 56.269 22.2267C56.2618 22.5013 56.3177 22.7739 56.4323 23.0236C56.5383 23.2497 56.7087 23.4394 56.9222 23.569C57.147 23.7029 57.4052 23.7703 57.6668 23.7633Z" fill="#414042"/>
<path d="M63.4433 20.6983V20.2623H63.9479V21.5327H63.4319C63.3122 21.2891 63.1274 21.0834 62.8979 20.9384C62.6755 20.7968 62.417 20.7225 62.1534 20.7244C61.9047 20.7204 61.6607 20.7928 61.4545 20.9318C61.2483 21.0699 61.0826 21.2604 60.9744 21.4837C60.8585 21.7169 60.7982 21.9737 60.7982 22.234C60.7982 22.4944 60.8585 22.7512 60.9744 22.9843C61.0872 23.2085 61.256 23.3997 61.4643 23.5395C61.6721 23.6779 61.9167 23.7507 62.1664 23.7485C62.4725 23.7523 62.7703 23.6496 63.009 23.4579C63.266 23.2424 63.4521 22.9545 63.5429 22.6316L64.0491 22.9011C63.9308 23.3157 63.6752 23.6778 63.3241 23.9281C62.9658 24.1744 62.5391 24.3018 62.1044 24.2923C61.7441 24.2989 61.3893 24.2038 61.0806 24.0179C60.7857 23.8393 60.5452 23.5835 60.385 23.2783C60.2178 22.9649 60.1319 22.6145 60.1351 22.2593C60.1283 21.8855 60.2159 21.5159 60.3899 21.1849C60.5505 20.8809 60.7932 20.628 61.0904 20.455C61.4023 20.2785 61.7558 20.1889 62.1142 20.1954C62.358 20.1933 62.6001 20.2371 62.8277 20.3244C63.0534 20.4117 63.2618 20.5383 63.4433 20.6983Z" fill="#414042"/>
<path d="M67.3291 21.7147V20.7611H66.5127V23.7362H67.027V24.2261H65.4072V23.7362H65.9118V20.7562H65.0953V21.7147H64.6055V20.2615H67.8141V21.7147H67.3291Z" fill="#414042"/>
<path d="M72.3605 22.2316C72.3677 22.608 72.2759 22.9796 72.0944 23.3093C71.9222 23.6166 71.6662 23.8686 71.3563 24.036C71.0268 24.2108 70.6582 24.299 70.2851 24.2923C69.9166 24.2994 69.5529 24.2075 69.2319 24.0262C68.9285 23.8515 68.6802 23.5952 68.5151 23.2865C68.3386 22.9596 68.2481 22.5933 68.2522 22.2218C68.2463 21.8561 68.3364 21.4952 68.5135 21.1752C68.6836 20.8731 68.934 20.6239 69.2368 20.4551C69.5571 20.2787 69.9179 20.1892 70.2835 20.1955C70.6611 20.1883 71.0339 20.2807 71.3645 20.4632C71.6715 20.6332 71.9245 20.8861 72.0944 21.1931C72.272 21.5102 72.3638 21.8682 72.3605 22.2316ZM70.308 23.7633C70.5671 23.7675 70.8215 23.6935 71.0379 23.551C71.2489 23.4093 71.418 23.2136 71.5278 22.9844C71.6451 22.7509 71.7055 22.4929 71.7041 22.2316C71.7059 21.9681 71.6419 21.7082 71.518 21.4756C71.3997 21.2499 71.2232 21.06 71.0069 20.9253C70.7846 20.7903 70.5288 20.7207 70.2688 20.7245C70.0202 20.7189 69.7753 20.7855 69.5638 20.9162C69.3522 21.0469 69.1831 21.2361 69.0768 21.4609C68.9634 21.7 68.9074 21.9622 68.9135 22.2267C68.9058 22.5014 68.9617 22.7741 69.0768 23.0236C69.1828 23.2497 69.3532 23.4394 69.5667 23.569C69.7904 23.7026 70.0475 23.77 70.308 23.7633Z" fill="#414042"/>
<path d="M75.8918 21.3009C75.8995 21.5333 75.823 21.7607 75.6763 21.941C75.5193 22.1221 75.3079 22.2476 75.0737 22.2986L75.7726 23.7323H76.2625V24.2221H75.3725L74.4973 22.3754H73.9422V23.7274H74.4467V24.2172H72.8008V23.7274H73.3364V20.7572H72.8008V20.2673H74.4467C74.9578 20.2673 75.3252 20.3506 75.5522 20.5172C75.6684 20.6102 75.7601 20.7303 75.8193 20.8669C75.8785 21.0035 75.9034 21.1525 75.8918 21.3009ZM75.2762 21.2911C75.2826 21.2144 75.2702 21.1373 75.24 21.0664C75.2098 20.9956 75.1629 20.9331 75.1031 20.8846C74.9371 20.7867 74.745 20.7423 74.5528 20.7572H73.9373V21.879H74.5137C74.7139 21.8941 74.914 21.8474 75.0868 21.7451C75.153 21.6906 75.2048 21.6207 75.2379 21.5416C75.2709 21.4625 75.284 21.3765 75.2762 21.2911Z" fill="#414042"/>
</svg>
