<svg width="52" height="52" viewBox="0 0 52 52" fill="none" xmlns="http://www.w3.org/2000/svg">
<path d="M27.5122 51.9991H24.4586C23.5883 51.891 22.7129 51.8122 21.849 51.6672C16.4162 50.7592 11.6831 48.4231 7.78723 44.5316C1.94978 38.6945 -0.621597 31.5997 0.126533 23.3844C0.626559 17.8703 2.7857 12.9958 6.47546 8.85517C11.3739 3.35503 17.5384 0.391955 24.8963 0.0333337C30.0263 -0.221008 34.8497 0.979484 39.2405 3.6577C45.9915 7.77295 50.1291 13.736 51.5923 21.5252C51.7742 22.4993 51.8646 23.4925 51.9969 24.4755V27.5276C51.9562 27.8939 51.9129 28.2589 51.8696 28.6239C51.2475 34.2194 49.11 39.1549 45.3375 43.3388C41.3322 47.7821 36.3701 50.5557 30.4665 51.6049C29.4894 51.7689 28.4995 51.8669 27.5122 51.9991ZM13.0763 44.1438V43.5194C13.0763 41.3702 13.0496 39.2197 13.0916 37.0718C13.1565 33.7081 15.3372 30.6675 18.5142 29.5687C19.499 29.2292 20.5614 29.1122 21.494 28.9138C15.1133 25.5133 15.2062 17.7228 18.7547 13.8797C22.5832 9.73519 29.0173 9.53553 32.8776 13.5236C34.8917 15.6067 35.8625 18.117 35.6271 21.0012C35.3332 24.5875 33.4858 27.2174 30.3062 28.9761C31.006 29.0575 31.6447 29.0842 32.263 29.2127C34.1226 29.5801 35.7982 30.578 37.0066 32.0379C38.2149 33.4977 38.8817 35.3298 38.8944 37.2244C38.9237 39.3405 38.9008 41.4567 38.9021 43.5715V44.145C46.1073 39.1332 50.2563 29.4568 47.3936 19.6443C44.6504 10.2515 35.6678 3.56232 25.8836 3.6755C15.7049 3.78996 6.93604 10.572 4.3812 20.3845C1.86072 30.0927 6.18791 39.3876 13.0763 44.1438ZM26.007 32.7938V32.7149C24.5515 32.7149 23.0946 32.701 21.6391 32.7226C21.1673 32.7185 20.6969 32.7749 20.2395 32.8904C18.0409 33.5009 16.7622 35.2164 16.7546 37.5411C16.7457 40.2994 16.761 43.059 16.7432 45.8186C16.7432 46.2001 16.8628 46.3769 17.2114 46.5206C23.0539 48.9216 28.8969 48.9271 34.7403 46.5371C35.1474 46.3705 35.2492 46.1556 35.2403 45.7538C35.2225 43.5919 35.2403 41.4198 35.2288 39.2541C35.2288 38.3575 35.2225 37.4584 35.1347 36.5682C34.9464 34.7192 33.1473 32.9095 31.2846 32.8116C29.5301 32.7226 27.7666 32.7938 26.007 32.7938ZM26.0223 14.3197C24.8376 14.3127 23.6774 14.6567 22.6882 15.3083C21.6989 15.9598 20.925 16.8897 20.4641 17.9805C20.0032 19.0713 19.8759 20.2742 20.0984 21.4372C20.3209 22.6003 20.8831 23.6714 21.7141 24.5153C22.5452 25.3592 23.6077 25.9381 24.7677 26.1789C25.9276 26.4197 27.1329 26.3117 28.2314 25.8684C29.33 25.4251 30.2725 24.6664 30.94 23.6881C31.6075 22.7098 31.97 21.5558 31.9819 20.3717C31.9944 18.7793 31.3736 17.2471 30.256 16.1122C29.1383 14.9772 27.6155 14.3325 26.0223 14.3197Z" fill="#A8A8A8"/>
</svg>
