<svg width="30" height="30" viewBox="0 0 30 30" fill="none" xmlns="http://www.w3.org/2000/svg">
<g clip-path="url(#clip0_854_1123)">
<rect width="30" height="30" fill="white"/>
<path d="M15.8731 30.0009H14.1114C13.6093 29.9385 13.1042 29.893 12.6058 29.8094C9.47131 29.2855 6.74057 27.9377 4.49284 25.6925C1.12493 22.3248 -0.35863 18.2314 0.0730033 13.4916C0.361493 10.3103 1.60721 7.49795 3.73602 5.10899C6.56219 1.93569 10.1188 0.226139 14.3639 0.0192319C17.3237 -0.12751 20.1065 0.565113 22.6398 2.11031C26.5348 4.4846 28.922 7.92497 29.7662 12.419C29.8711 12.981 29.9233 13.554 29.9996 14.1212V15.8821C29.9761 16.0934 29.9511 16.304 29.9262 16.5145C29.5672 19.7429 28.334 22.5904 26.1575 25.0043C23.8466 27.5679 20.9837 29.1681 17.5777 29.7734C17.0139 29.8681 16.4428 29.9246 15.8731 30.0009ZM7.54437 25.4687V25.1085C7.54437 23.8685 7.52896 22.6278 7.55318 21.3886C7.59062 19.4479 8.84882 17.6936 10.6818 17.0597C11.25 16.8638 11.8629 16.7963 12.401 16.6818C8.71962 14.7199 8.77321 10.2252 10.8205 8.00788C13.0294 5.61672 16.7415 5.50152 18.9687 7.80244C20.1308 9.00426 20.6908 10.4526 20.555 12.1167C20.3855 14.1857 19.3196 15.703 17.4852 16.7178C17.8889 16.7647 18.2574 16.7801 18.6142 16.8542C19.6871 17.0662 20.6538 17.642 21.3509 18.4843C22.0481 19.3265 22.4328 20.3835 22.4401 21.4766C22.457 22.6975 22.4438 23.9184 22.4445 25.1386V25.4695C26.6016 22.5779 28.9954 16.9951 27.3437 11.3338C25.7611 5.9146 20.5785 2.05528 14.9335 2.12058C9.06097 2.18662 4.00175 6.0995 2.52774 11.7608C1.07354 17.362 3.57012 22.7247 7.54437 25.4687ZM15.0047 18.9204V18.8749C14.165 18.8749 13.3244 18.8668 12.4847 18.8793C12.2125 18.8769 11.9411 18.9095 11.6772 18.9761C10.4087 19.3283 9.67098 20.3181 9.66657 21.6593C9.66144 23.2507 9.67024 24.8429 9.65997 26.435C9.65997 26.6552 9.72897 26.7571 9.93011 26.8401C13.301 28.2253 16.6721 28.2285 20.0434 26.8496C20.2783 26.7535 20.337 26.6295 20.3319 26.3976C20.3216 25.1503 20.3319 23.8971 20.3253 22.6476C20.3253 22.1304 20.3216 21.6116 20.271 21.098C20.1623 20.0312 19.1243 18.9871 18.0497 18.9306C17.0374 18.8793 16.02 18.9204 15.0047 18.9204ZM15.0135 8.26175C14.33 8.25772 13.6607 8.45619 13.0899 8.8321C12.5192 9.208 12.0727 9.74449 11.8068 10.3738C11.5408 11.0032 11.4674 11.6972 11.5958 12.3682C11.7241 13.0392 12.0485 13.6572 12.528 14.1441C13.0074 14.631 13.6205 14.965 14.2897 15.1039C14.9589 15.2429 15.6543 15.1805 16.2881 14.9248C16.9219 14.669 17.4657 14.2313 17.8508 13.6668C18.2359 13.1024 18.4451 12.4366 18.4519 11.7535C18.4592 10.8347 18.101 9.95074 17.4562 9.29592C16.8114 8.64111 15.9327 8.26911 15.0135 8.26175Z" fill="#B338FF"/>
</g>
<defs>
<clipPath id="clip0_854_1123">
<rect width="30" height="30" fill="white"/>
</clipPath>
</defs>
</svg>
