<svg width="21" height="24" viewBox="0 0 21 24" fill="none" xmlns="http://www.w3.org/2000/svg">
<path d="M3.7 24.0003C3.42754 23.9434 3.15039 23.9024 2.8832 23.8268C1.17226 23.3452 0.0912101 22.0263 0.0156242 20.2309C-0.0623055 18.3759 0.141601 16.5483 0.846484 14.8116C1.30176 13.6901 1.96269 12.7204 3.07012 12.128C3.75332 11.763 4.48633 11.5884 5.25273 11.6042C5.49473 11.6095 5.74902 11.7313 5.96992 11.8515C6.32558 12.0448 6.65547 12.285 7.00058 12.4983C9.00801 13.7376 11.0166 13.7364 13.0223 12.4936C13.3006 12.3208 13.5853 12.1544 13.8467 11.9587C14.3266 11.5989 14.8551 11.5538 15.4252 11.6376C16.982 11.8661 18.0812 12.7192 18.8225 14.0792C19.4846 15.2938 19.7822 16.6122 19.9146 17.9716C19.9826 18.6694 20.0148 19.3743 20.0066 20.0751C19.9814 22.1686 18.5441 23.7266 16.4617 23.9563C16.4102 23.9622 16.3603 23.985 16.3094 24.0003C12.107 24.0003 7.90351 24.0003 3.7 24.0003Z" fill="black"/>
<path d="M10.4031 0C10.7148 0.0626953 11.0289 0.116016 11.3388 0.188672C13.4652 0.686719 15.281 2.71523 15.5675 4.88555C15.7562 6.31406 15.5482 7.66406 14.7414 8.87226C13.6697 10.4771 12.1867 11.4111 10.2255 11.5436C7.65034 11.7176 5.53218 10.2029 4.57065 8.14687C3.66772 6.21562 4.03276 3.64336 5.44839 2.04258C6.31733 1.05996 7.3644 0.383203 8.6605 0.119531C8.88081 0.0744141 9.10347 0.0398437 9.32495 0C9.68413 0 10.0439 0 10.4031 0Z" fill="black"/>
</svg>
