<svg width="179" height="90" viewBox="0 0 179 90" fill="none" xmlns="http://www.w3.org/2000/svg">
<path d="M91.9773 80.965C91.9773 83.7146 91.1489 85.779 89.4921 87.1582C87.8353 88.5374 85.3589 89.2292 82.0629 89.2337H76.1143V87.2508H78.2624V75.1882H76.1143V73.2053H82.2149C85.5021 73.2053 87.9521 73.8266 89.5648 75.0692C91.1776 76.3118 91.9817 78.2771 91.9773 80.965ZM89.3335 81.0774C89.3755 79.9334 89.1301 78.7972 88.6197 77.7726C88.1057 76.8863 87.2996 76.2063 86.3393 75.8492C85.0206 75.3717 83.6235 75.1474 82.2215 75.1882H80.6749V87.2309H82.2017C84.6737 87.2309 86.4803 86.7352 87.6216 85.7438C88.7629 84.7523 89.3335 83.188 89.3335 81.0509V81.0774Z" fill="#414042"/>
<path d="M110.314 81.1539C110.341 82.6779 109.967 84.1822 109.23 85.5162C108.535 86.7613 107.498 87.7818 106.242 88.4575C104.909 89.1661 103.416 89.5232 101.906 89.4952C100.417 89.523 98.9468 89.151 97.6497 88.4179C96.4199 87.7129 95.4141 86.675 94.7481 85.4237C94.0428 84.0983 93.6857 82.6154 93.7104 81.1142C93.6833 79.6335 94.0481 78.1718 94.7679 76.8775C95.454 75.6548 96.4652 74.646 97.6894 73.9626C98.9878 73.2478 100.451 72.8855 101.933 72.9117C103.461 72.8829 104.97 73.2567 106.308 73.9957C107.548 74.6872 108.571 75.7102 109.263 76.9502C109.973 78.2362 110.335 79.6851 110.314 81.1539ZM102.005 87.3537C103.052 87.37 104.079 87.0706 104.953 86.4945C105.807 85.9204 106.492 85.1285 106.936 84.2009C107.406 83.2542 107.648 82.2108 107.643 81.1539C107.651 80.087 107.392 79.0352 106.89 78.0936C106.413 77.1788 105.698 76.4094 104.821 75.8662C103.924 75.3196 102.891 75.0378 101.84 75.0532C100.833 75.0294 99.8402 75.2984 98.9826 75.8275C98.125 76.3566 97.4393 77.1231 97.0086 78.0342C96.5526 79.0028 96.3264 80.0637 96.3476 81.1341C96.3184 82.2456 96.5445 83.3491 97.0086 84.3596C97.4376 85.2747 98.1274 86.0428 98.9915 86.5672C99.9014 87.1095 100.947 87.3823 102.005 87.3537Z" fill="#414042"/>
<path d="M125.383 74.9495V73.1847H127.425V78.327H125.337C124.852 77.3408 124.104 76.508 123.175 75.9211C122.275 75.3481 121.228 75.0475 120.161 75.0552C119.155 75.0388 118.167 75.3318 117.332 75.8946C116.498 76.4534 115.827 77.2245 115.389 78.1287C114.92 79.0723 114.676 80.1119 114.676 81.1658C114.676 82.2197 114.92 83.2593 115.389 84.2029C115.846 85.1101 116.529 85.8842 117.372 86.4502C118.213 87.0103 119.203 87.305 120.214 87.2962C121.453 87.3115 122.659 86.8956 123.625 86.1197C124.665 85.2477 125.418 84.0821 125.786 82.7752L127.835 83.8658C127.356 85.5442 126.321 87.0101 124.9 88.0233C123.45 89.0201 121.723 89.5357 119.963 89.4972C118.505 89.5239 117.068 89.1391 115.819 88.3868C114.625 87.6636 113.652 86.6284 113.003 85.3927C112.326 84.1241 111.978 82.706 111.992 81.2683C111.964 79.7549 112.319 78.259 113.023 76.9191C113.673 75.6885 114.656 74.6649 115.858 73.9646C117.121 73.2502 118.552 72.8873 120.003 72.9137C120.99 72.9053 121.969 73.0824 122.891 73.4359C123.804 73.7893 124.648 74.3018 125.383 74.9495Z" fill="#414042"/>
<path d="M141.111 79.0681V75.2081H137.806V87.2508H139.888V89.2337H133.331V87.2508H135.374V75.1883H132.069V79.0681H130.086V73.1855H143.074V79.0681H141.111Z" fill="#414042"/>
<path d="M161.483 81.1539C161.513 82.6773 161.141 84.1816 160.406 85.5162C159.709 86.76 158.673 87.7801 157.419 88.4575C156.085 89.1653 154.593 89.5224 153.083 89.4952C151.591 89.5239 150.119 89.1518 148.819 88.4179C147.591 87.7109 146.586 86.6735 145.918 85.4237C145.203 84.1007 144.837 82.6177 144.854 81.1142C144.83 79.6338 145.194 78.173 145.911 76.8775C146.6 75.6546 147.613 74.6458 148.839 73.9626C150.136 73.2486 151.596 72.8863 153.076 72.9117C154.604 72.8829 156.113 73.2567 157.452 73.9957C158.694 74.6835 159.718 75.7074 160.406 76.9502C161.125 78.2337 161.497 79.6827 161.483 81.1539ZM153.175 87.3537C154.224 87.371 155.254 87.0715 156.13 86.4945C156.984 85.9209 157.668 85.1289 158.113 84.2009C158.587 83.2557 158.832 82.2116 158.826 81.1539C158.833 80.087 158.575 79.0352 158.073 78.0936C157.594 77.1802 156.88 76.4112 156.004 75.8662C155.104 75.3197 154.069 75.038 153.017 75.0532C152.01 75.0307 151.019 75.3003 150.163 75.8293C149.306 76.3584 148.622 77.1242 148.192 78.0342C147.732 79.0017 147.506 80.0633 147.531 81.1341C147.499 82.2458 147.725 83.3498 148.192 84.3596C148.621 85.2747 149.31 86.0428 150.174 86.5672C151.08 87.1081 152.121 87.3809 153.175 87.3537Z" fill="#414042"/>
<path d="M175.767 77.389C175.798 78.3296 175.488 79.2499 174.894 79.9799C174.259 80.713 173.403 81.2208 172.455 81.4275L175.284 87.2307H177.267V89.2136H173.665L170.122 81.7381H167.875V87.2109H169.917V89.1938H163.255V87.2109H165.423V75.188H163.255V73.2051H169.917C171.986 73.2051 173.473 73.5422 174.392 74.2164C174.863 74.5929 175.234 75.0789 175.474 75.6319C175.713 76.1849 175.814 76.7881 175.767 77.389ZM173.275 77.3493C173.301 77.0387 173.251 76.7265 173.129 76.4397C173.006 76.1529 172.816 75.9002 172.574 75.7035C171.902 75.3075 171.125 75.1275 170.347 75.188H167.855V79.7288H170.188C170.999 79.7902 171.809 79.601 172.508 79.1868C172.776 78.9662 172.986 78.6835 173.12 78.3632C173.253 78.043 173.307 77.6949 173.275 77.3493Z" fill="#414042"/>
<path d="M4.44376 75.2516V79.9339H11.6311V75.2516H9.69729V73.1914H16.0324V75.2516H14.1221V87.6784H16.0324V89.7433H9.69729V87.6784H11.6311V81.9941H4.44376V87.6784H6.39628V89.7433H0.0751953V87.6784H1.94811V75.2516H0.0751953V73.1914H6.39628V75.2516H4.44376Z" fill="#E53C3C"/>
<path d="M34.4252 81.4053C34.4549 82.974 34.0705 84.5228 33.3108 85.8956C32.5958 87.1798 31.5284 88.2326 30.2345 88.9297C28.8596 89.6571 27.3228 90.0244 25.7676 89.9973C24.2309 90.0254 22.7146 89.6422 21.3756 88.8876C20.1063 88.1599 19.0665 87.0909 18.3743 85.802C17.6465 84.4372 17.2775 82.9097 17.302 81.3632C17.2762 79.8365 17.6525 78.3299 18.393 76.9946C19.1022 75.7353 20.1458 74.6966 21.4084 73.9933C22.7452 73.2574 24.2513 72.8845 25.777 72.9116C27.3515 72.883 28.9061 73.2672 30.286 74.026C31.5633 74.7405 32.617 75.7958 33.3295 77.0742C34.0653 78.398 34.443 79.8909 34.4252 81.4053ZM25.8659 87.792C26.9447 87.8083 28.0034 87.5 28.9047 86.907C29.7901 86.324 30.5044 85.516 30.9743 84.5659C31.4599 83.59 31.71 82.514 31.7047 81.424C31.7131 80.3243 31.4476 79.2397 30.9322 78.2682C30.4403 77.3237 29.7026 76.5295 28.797 75.9692C27.8721 75.4026 26.8053 75.1103 25.7208 75.1264C24.6716 75.1089 23.6396 75.3933 22.7475 75.9458C21.8809 76.4937 21.1877 77.2763 20.7482 78.2026C20.2659 79.1972 20.0222 80.2906 20.0365 81.3959C20.0168 82.5439 20.2603 83.6811 20.7482 84.7204C21.1882 85.6603 21.8949 86.45 22.7803 86.9913C23.7135 87.542 24.7827 87.8194 25.8659 87.792Z" fill="#E53C3C"/>
<path d="M49.7443 73.1914H55.4754V75.2516H53.4901V87.6784H55.4895V89.7433H49.2761V87.6784H51.2286V75.2516L45.5303 89.9025H45.0339L39.4152 75.2516V87.6784H41.2366V89.7433H35.3369V87.6784H37.3456V75.2516H35.3369V73.1914H41.0072L45.3664 84.5179L49.7443 73.1914Z" fill="#E53C3C"/>
<path d="M69.5981 78.0188V75.2516H62.5185V80.1867H68.6757V82.247H62.5185V87.6784H69.5981V84.663H71.6396V89.7433H57.8877V87.6784H60.0181V75.2516H57.8877V73.1914H71.6396V78.0188H69.5981Z" fill="#E53C3C"/>
<path d="M64.7422 33.1313L64.4609 39.8622C64.4609 39.8622 69.931 40.7028 76.2416 34.3922C77.9228 32.9891 82.6913 27.38 82.6913 27.38L80.5867 26.8207L81.2882 25.5566L78.7665 25.9802C78.7665 25.9802 77.2212 25.5566 76.5229 26.2582C75.8246 26.9597 70.9267 32.9891 64.7422 33.1313Z" fill="#EFB58E"/>
<path d="M44.0032 50.6605C44.0032 50.6605 44.0032 60.6179 44.1422 61.5974C44.2813 62.577 51.856 63.9833 53.259 63.0005C53.1168 62.4412 51.1544 60.8991 51.4357 59.9163C51.7169 58.9335 51.995 49.959 51.995 49.959H45.9397C45.231 49.9584 44.5445 50.2067 44 50.6605H44.0032Z" fill="#EFB58E"/>
<path d="M11.4691 20.6541L11.0488 29.2083C11.0488 29.2083 16.2215 28.5068 16.0986 32.4412C15.9758 36.3757 12.8657 36.644 11.4691 37.0675C15.1158 39.1722 17.6407 40.433 14.2753 44.0797C17.7797 46.3233 25.2122 50.5294 26.334 50.8106C27.4558 51.0919 42.4597 50.1091 46.2455 50.2481C50.0312 50.3871 62.5102 49.4075 63.2117 48.845C63.9133 48.2825 65.0351 22.2026 64.8961 20.9418C64.7571 19.681 48.8997 9.85618 48.3468 9.01562C47.086 10.4187 27.333 25.3386 24.9309 25.8429C22.5289 26.3472 11.4691 20.6541 11.4691 20.6541Z" fill="#E53C3C"/>
<path d="M6.98295 17.1459C6.22645 18.6718 22.2681 26.1204 24.0915 25.8262C25.9148 25.532 46.8059 9.98501 48.2089 9.01514C50.1713 10.2792 63.7592 19.3831 64.6159 20.5146C64.7845 21.3462 64.8786 22.1912 64.8972 23.0395C64.8972 23.0395 68.6829 23.5988 69.3845 23.0395C70.086 22.4802 69.6625 21.3551 67.5611 19.5318C65.4597 17.7084 49.612 6.49024 47.7887 5.50744C45.9653 4.52463 34.3269 0.334791 32.6457 0.0373642C30.9646 -0.260063 7.8429 15.4809 6.98295 17.1459Z" fill="#914E37"/>
<path d="M20.4509 5.13846C20.4509 5.13846 23.0696 3.64486 24.1914 3.73861C25.3132 3.83237 27.6442 4.49188 28.0159 5.41649C28.3877 6.3411 28.1097 12.2411 27.8317 12.7099C27.5536 13.1787 24.3725 15.2316 23.6289 15.1378C22.8853 15.0441 20.2893 13.7444 19.8916 13.363C19.494 12.9815 20.4509 5.13846 20.4509 5.13846Z" fill="#E53C3C"/>
<path d="M32.436 29.8364C32.5848 27.6703 34.531 26.5744 37.4115 26.4709C40.292 26.3674 42.8104 27.5927 42.5841 29.9075C42.3578 32.2222 39.5258 33.5542 37.2628 33.4831C34.9997 33.4119 32.2938 31.8699 32.436 29.8364Z" fill="white"/>
<path d="M49.5485 29.8429C49.6972 27.6769 51.6467 26.5809 54.5272 26.4775C57.4077 26.374 59.5737 27.9517 59.3765 30.2632C59.1793 32.5747 56.6447 33.5608 54.4011 33.4961C52.1574 33.4314 49.403 31.8764 49.5485 29.8429Z" fill="white"/>
<path d="M36.6179 29.9104C36.6955 31.5947 37.5522 33.0883 39.3271 32.9945C41.1019 32.9008 42.4113 32.0602 42.505 30.0041C42.5988 27.948 40.6364 27.0137 39.7021 27.0137C38.7678 27.0137 36.5274 27.948 36.6179 29.9104Z" fill="#914E37"/>
<path d="M53.4413 29.9104C53.5221 31.5947 54.3789 33.0883 56.1537 32.9945C57.9286 32.9008 59.2379 32.0602 59.3317 30.0041C59.4254 27.948 57.4631 27.0137 56.5287 27.0137C55.5944 27.0137 53.3476 27.948 53.4413 29.9104Z" fill="#914E37"/>
<path d="M24.0923 37.7642C23.7237 36.7329 20.8594 33.9785 20.8594 32.9957C20.8594 32.0129 21.9812 30.474 23.103 30.6131C24.2248 30.7521 25.4404 34.4085 25.3466 35.5206C25.2529 36.6327 26.6107 37.6252 27.17 38.4658C27.7293 39.3063 33.6358 47.9996 39.9303 51.6463C46.2247 55.293 50.8672 56.4149 53.2531 56.4149C55.639 56.4149 57.5981 54.8695 58.8622 49.2637C59.9808 49.2637 61.2448 48.9824 60.9636 49.684C60.6823 50.3855 59.4215 54.8566 59.0012 55.8523C60.6823 56.1336 66.1524 55.7133 68.8163 52.7682C71.4802 49.823 74.4415 48.1386 76.6755 39.0251C76.6755 38.747 76.9567 38.4658 77.2348 37.6252C77.5128 36.7847 77.9363 34.9581 77.9363 34.9581C77.9363 34.9581 75.3047 33.8977 75.4987 31.4019C75.6927 28.9061 77.6744 27.1248 79.7597 27.3866C81.8449 27.6485 83.8267 29.6303 83.2641 31.8739C82.7016 34.1175 81.444 34.68 79.7597 35.1068C79.6206 36.3676 79.3394 39.0315 79.0581 40.0143C78.7769 40.9971 75.4146 50.2497 71.9069 53.3339C68.3992 56.4181 63.3527 60.0583 50.8737 58.096C45.8271 57.2554 38.2653 53.8932 36.7135 52.2056C35.1617 50.518 25.4954 41.689 24.0923 37.7642Z" fill="white"/>
<path d="M22.9697 48.9785C24.0915 49.6801 24.932 51.0799 30.9614 50.8019C30.5411 54.1673 30.4021 60.617 30.4021 60.617C30.4021 60.617 32.7847 62.7184 32.3645 63.5621C31.9442 64.4059 22.8306 63.2809 22.6884 61.8778C22.5461 60.4747 22.9697 48.9785 22.9697 48.9785Z" fill="#EFB58E"/>
<path d="M13.5743 29.3483C15.4623 29.6037 17.6413 32.9918 14.9774 35.5167C13.154 36.6385 11.0494 37.0588 9.92756 36.2182C13.1605 37.6213 16.3772 40.143 15.3976 42.3866C14.4181 44.6303 9.50729 46.1724 7.26365 43.2272C7.26365 42.1054 8.94799 41.8273 8.94799 41.8273C8.94799 41.8273 3.05764 42.2476 2.07484 40.9868C1.09204 39.7259 -0.589073 37.0588 1.79681 34.8152C4.18269 32.5715 10.4901 28.9248 13.5743 29.3483Z" fill="#EFB58E"/>
<path d="M65.3623 23.4938C65.1877 26.3614 65.1521 29.1707 65.0681 32.0319C65.1166 33.0535 67.3667 32.3875 67.9518 32.1289C71.285 30.8777 73.8292 28.4336 76.3574 26.0413C77.0363 25.4173 77.9738 25.6436 78.7821 25.4464C79.7519 25.2007 80.7218 24.8807 81.7499 25.0359C82.9848 25.2298 81.1388 26.4292 82.6648 26.4422C82.8943 26.4777 83.1271 26.4971 83.3566 26.5359C84.2133 26.6749 83.903 27.5511 83.3566 27.9196C82.71 28.4045 83.8318 30.0307 83.7931 30.8292C83.9623 31.7826 83.7707 32.7648 83.2555 33.5847C82.7404 34.4046 81.9386 35.0035 81.0063 35.2648C79.7131 35.5687 79.878 36.7778 79.6905 37.7864C79.3349 43.2209 76.3994 48.177 73.3443 52.564C69.9692 57.0901 63.9042 58.8876 58.4729 59.2238C56.7951 59.2238 55.1172 59.1171 53.4458 59.0137C52.3531 58.9458 52.3046 58.9781 52.2625 60.0547C52.1138 61.1151 53.1322 61.6032 53.5945 62.4147C55.2109 65.6476 46.1588 63.446 44.8042 63.0613C42.5412 62.3856 43.663 58.9749 43.5111 57.1483C43.5452 56.9788 43.5124 56.8027 43.4196 56.6569C43.3268 56.5111 43.1812 56.4068 43.0132 56.3659C40.2199 55.2078 37.607 53.6553 35.2542 51.7558C35.0376 51.5831 34.7713 51.4845 34.4945 51.4746C33.4729 51.523 32.4481 51.5683 31.4329 51.7041C31.0805 54.4521 31.0741 57.2 30.9157 59.9706C30.903 60.1309 30.9276 60.292 30.9876 60.4412C31.0477 60.5904 31.1414 60.7237 31.2616 60.8306C32.0666 61.5838 34.4654 63.6303 32.3834 64.1928C29.4276 64.3878 26.4601 64.0762 23.6093 63.2714C21.0844 62.6701 22.2903 58.865 22.0866 56.9285C22.1351 54.8141 22.2095 52.6998 22.2806 50.5887C22.3064 49.7902 21.9056 49.3473 21.2267 48.9723C19.3516 47.9313 17.5153 46.8192 15.6628 45.7394C14.6251 45.1639 14.014 44.6531 12.7855 45.1316C11.5376 45.4096 10.1443 45.7782 8.96102 45.0799C8.0058 44.5676 7.18075 43.8432 6.54927 42.9623C6.14192 41.6498 3.78837 43.3761 0.90785 40.6411C0.63572 40.3902 0.415923 40.0879 0.261121 39.7516C0.106319 39.4154 0.0195693 39.0519 0.00586964 38.6819C-0.213968 33.3865 5.78954 31.0297 9.92442 29.4423C10.047 29.4162 10.1568 29.3485 10.2352 29.2507C10.3135 29.1529 10.3557 29.031 10.3544 28.9056C10.5225 26.6652 10.7197 24.4281 10.8878 22.1877C10.8393 21.5993 11.0947 20.7749 10.5872 20.3514C6.18072 17.7651 4.12136 17.4903 9.54294 13.8371C12.8502 11.6031 16.0637 9.22049 19.4809 7.187C20.0984 6.48546 19.5003 5.10501 20.4184 4.56511C25.7236 1.74602 24.1363 4.16746 26.4478 3.22022C27.922 2.29238 29.4382 1.42919 30.9157 0.501351C32.3931 -0.426493 34.1486 0.129567 35.6971 0.604803C39.9581 1.93353 44.0704 3.6599 48.2117 5.31515C49.9445 5.97789 51.1924 7.45533 52.7895 8.3864C55.0428 9.98669 57.2768 11.5708 59.5301 13.1485C62.9247 15.4438 66.261 17.8168 69.4681 20.3643C70.3248 21.0271 70.7095 21.8967 70.4379 22.9927C70.2375 24.4281 66.4712 23.3289 65.3623 23.4938ZM11.9579 28.9089C15.1617 27.9778 16.7071 29.7591 16.6974 32.8918C16.762 35.3165 15.4882 36.2993 13.3384 37.0946C15.9797 38.5268 17.609 41.4493 15.2781 43.9128C18.414 45.817 21.592 47.6015 24.7861 49.4087C27.4823 50.495 30.6053 50.2945 33.4535 50.1135C31.0239 47.7051 28.7732 45.1227 26.7194 42.3869C26.3961 44.4753 26.5803 46.6317 26.0308 48.6684H25.8691C25.5038 48.1511 25.5167 47.5272 25.5167 46.9162C25.5329 45.0055 25.5717 43.0949 25.5781 41.1874C25.3712 39.9848 24.3917 39.0311 23.8324 37.9545C23.1211 36.8812 21.9961 36.1732 21.3786 34.9932C20.6156 33.797 20.1954 31.9898 21.2331 30.8519C21.4907 30.6142 21.7999 30.4397 22.1365 30.342C22.473 30.2442 22.8276 30.226 23.1724 30.2887C23.5172 30.3514 23.8427 30.4933 24.1233 30.7032C24.4039 30.9131 24.6319 31.1854 24.7893 31.4984C25.0733 32.2237 25.3203 32.9628 25.5297 33.713C25.9305 31.5793 25.3163 29.2192 26.0178 27.1663C27.353 25.676 26.3185 35.4361 26.4672 36.1894C27.5534 39.057 36.5474 50.5499 39.6574 49.8193C42.8031 49.6221 45.939 49.2729 49.0943 49.2051C53.4135 49.024 57.7261 48.5358 62.055 48.5035C63.041 48.4679 63.2609 48.2643 63.29 47.2912C63.3374 43.9721 63.4937 40.6583 63.7588 37.35C63.9139 32.0448 63.9624 26.7364 64.2017 21.4312C64.2181 21.2818 64.1937 21.1307 64.1311 20.9941C64.0685 20.8574 63.9699 20.7403 63.846 20.6553C61.8158 19.2328 59.7952 17.7974 57.7649 16.3717C54.7842 14.2789 51.8024 12.1883 48.8195 10.0998C48.7665 10.0452 48.7027 10.0022 48.6321 9.9736C48.5615 9.94504 48.4858 9.93154 48.4097 9.93398C48.3336 9.93641 48.2588 9.95473 48.1902 9.98774C48.1216 10.0208 48.0606 10.0678 48.0113 10.1257C45.1889 12.8381 41.6295 14.6033 38.5001 16.9148C35.9428 18.7543 33.4438 20.6779 30.8736 22.498C27.8347 24.3505 24.4596 27.842 20.7353 25.5725C18.1489 24.1468 15.4527 22.8537 12.8017 21.5152C12.2553 21.1758 12.1875 21.6542 12.1745 22.1133C12.0743 24.3925 11.9094 26.6264 11.9579 28.9089ZM27.2205 4.04785C28.0643 4.56834 29.0083 4.81405 28.8563 5.95849C28.7205 7.86375 28.5966 9.77009 28.4845 11.6775C28.4646 12.0858 28.3456 12.4832 28.1378 12.8352C27.9299 13.1872 27.6395 13.4834 27.2916 13.6981C25.6751 14.7488 23.8809 16.4266 21.9347 15.1141C21.0973 14.4707 19.4809 14.2638 19.4809 12.9771C19.4809 11.6904 19.5682 10.4749 19.6425 9.23019C19.6425 8.69353 19.5294 8.6418 19.0865 8.9263C16.2706 10.7044 13.5356 12.6118 10.7456 14.4222C9.75895 15.0607 8.83265 15.7879 7.97821 16.5947C7.00834 17.4515 9.13883 17.9849 9.64962 18.4181C13.8524 20.5551 18.1037 22.6532 22.2773 24.8839C23.3248 25.44 24.3464 25.482 25.3195 24.8257C29.1602 22.261 32.9039 19.5776 36.5506 16.7758C39.2921 14.7908 42.0466 12.8478 44.8172 10.8822C46.1523 9.93173 47.4811 8.96833 48.8195 8.02108C49.4661 7.45209 48.2667 6.70206 47.7882 6.47899C43.1102 4.55541 38.4419 2.56718 33.6281 0.999218C32.1991 0.469022 28.7399 3.28488 27.2205 4.04785ZM64.8159 40.2822C64.6155 42.8168 64.5702 45.4064 64.4409 47.9571C64.4409 49.2988 63.2092 49.5736 62.11 49.6835C62 49.6885 61.8948 49.7299 61.8111 49.8014C61.7274 49.8728 61.6698 49.9701 61.6477 50.0779C61.1852 51.7414 60.585 53.3634 59.8534 54.9273C59.0613 56.2205 62.3524 54.9855 62.8988 55.0501C64.508 54.7935 66.048 54.2115 67.4249 53.3399C72.1772 49.8419 74.9575 44.2555 76.3024 38.6302C76.38 38.3069 76.4738 38.0354 76.8358 37.9351C77.2206 37.3888 77.1753 36.5353 77.3693 35.8823C77.476 35.3003 77.463 35.31 76.9296 35.0934C76.8337 35.0413 76.7218 35.027 76.6158 35.0533C76.5099 35.0796 76.4177 35.1447 76.3574 35.2357C75.0319 36.448 73.4478 37.4017 71.9606 38.3878C69.801 39.7617 67.3279 39.8458 64.8159 40.2822ZM8.19805 43.3535L8.15279 43.4505C8.69268 43.916 9.49444 44.0971 10.1475 44.3848C10.9266 44.6693 11.6702 44.346 12.4299 44.2199C14.3212 44.0065 16.0443 41.4041 14.693 39.807C13.3578 37.9675 10.9169 37.7218 9.29724 36.3025C8.74764 35.3876 10.2218 35.74 10.6357 35.9792C11.6605 36.4997 12.7758 36.0504 13.7813 35.7174C16.1316 35.2098 16.5842 30.0727 13.8007 30.0113C9.5688 30.3346 5.088 31.8282 2.36589 35.2939C-1.7399 41.2489 6.03524 42.0345 10.154 40.5441C11.8512 39.8975 10.9525 42.3384 9.89209 42.5485C9.68519 42.6229 9.49121 42.7295 9.24551 42.8459C9.46869 43.0128 9.66214 43.2161 9.81774 43.4473C9.31017 43.6962 8.72501 43.4311 8.19805 43.3535ZM56.5009 58.3057C69.203 58.2055 74.9284 51.6653 78.4846 40.1141C78.7594 39.2024 78.5493 38.9729 77.5891 39.0311C76.8585 39.0311 76.9943 39.9428 76.8068 40.4406C75.2162 46.3116 71.9833 52.4347 66.2804 55.1536C65.2523 55.5997 57.6162 57.9889 58.3986 55.4769C59.2143 53.9221 59.852 52.2801 60.2995 50.5823C60.6584 49.7191 59.653 49.4831 59.3297 50.259C58.224 52.9358 57.4998 56.8444 53.8758 56.8476C43.8311 56.6989 35.0667 49.8064 29.1764 42.1573C27.7992 40.3695 26.5545 38.4815 25.2549 36.6355C25.0415 36.3316 24.8119 36.2476 24.5404 36.406C22.9983 36.6129 29.8003 44.5723 30.3984 45.3902C36.5927 53.3302 46.3948 58.3154 56.5009 58.3057ZM31.3812 62.9158L31.462 62.7412C30.8575 61.9556 29.6678 61.4028 29.6354 60.323C29.6031 59.2432 29.6645 58.157 29.7357 57.0901C29.852 55.354 30.0072 53.618 30.1559 51.8819C30.1753 51.6459 30.088 51.5586 29.865 51.536C28.0028 51.3258 26.034 51.7461 24.3238 50.8086C23.2052 50.1329 23.4412 57.1936 23.2828 58.0406C23.3862 58.7841 23.0565 62.0429 23.9294 62.03C26.3827 62.5423 28.8762 62.8387 31.3812 62.9158ZM65.0842 33.8197C65.0616 35.2551 64.9582 37.1657 64.9258 38.7563C64.9388 38.8105 64.9656 38.8604 65.0035 38.9012C65.0415 38.9419 65.0893 38.9722 65.1424 38.9891C67.5503 39.0916 69.9282 38.4247 71.9315 37.0849C73.0501 36.3187 74.1202 35.4684 75.1968 34.6602C75.7787 34.2173 75.7496 34.1914 75.4101 33.5513C73.8325 30.9262 75.8078 28.1524 78.171 26.9045C76.9878 26.3452 75.908 27.758 75.1935 28.5597C72.7107 31.5987 69.0866 33.8132 65.0842 33.8067V33.8197ZM24.7247 13.7433L24.8831 13.808C25.5814 13.4847 26.1956 13.003 26.8648 12.6247C26.993 12.5631 27.1026 12.4688 27.1826 12.3513C27.2626 12.2338 27.3103 12.0973 27.3207 11.9555C27.4662 10.4005 27.6149 8.84871 27.7571 7.29045C27.7571 6.94453 27.7927 6.21713 27.2366 6.49516C25.9823 6.99626 24.6115 7.63314 23.2989 6.95423C22.6847 6.67943 22.0801 6.3917 21.4691 6.10721C20.9454 5.86474 20.8225 5.90677 20.787 6.49516C20.6512 8.52865 20.4637 10.5621 20.4637 12.6021C20.5704 13.3683 22.245 13.766 22.8496 14.2832C23.5511 14.6873 23.7031 14.6065 23.7386 13.7854C23.813 11.9911 23.897 10.2001 23.9811 8.40903C23.9811 8.08574 24.0425 7.6299 24.424 7.58788C25.3292 7.64284 24.5307 12.7282 24.7247 13.7433ZM68.8118 22.4722C68.9282 22.4043 69.2418 22.3202 69.2676 22.1844C69.2605 22.0059 69.2081 21.8322 69.1153 21.6795C69.0226 21.5268 68.8925 21.4002 68.7374 21.3116C66.219 19.4817 63.7232 17.6196 61.2435 15.7477C57.7283 13.3123 54.2044 10.893 50.6719 8.48986C50.0512 8.05665 49.9639 8.27972 49.5792 8.74849C49.5406 8.7887 49.5122 8.83758 49.4964 8.89102C49.4805 8.94447 49.4777 9.00093 49.4882 9.05568C49.4986 9.11044 49.522 9.1619 49.5564 9.20576C49.5908 9.24961 49.6352 9.2846 49.6859 9.30778C53.4975 12.0558 57.4449 14.5871 61.2791 17.3189C62.5723 18.5733 65.8666 19.5561 65.4819 21.6413C65.2782 22.3429 68.1167 22.2426 68.8118 22.4754V22.4722ZM52.4177 62.8479L52.4759 62.7186C51.9619 61.9136 50.9726 61.3834 51.0405 60.3262C50.9338 59.8316 51.3121 58.9717 50.7172 58.7454C48.8906 58.2766 47.0705 57.7916 45.2407 57.3326C44.3839 57.352 44.9174 59.9189 44.8269 60.5881C44.8883 61.9524 45.1501 62.2272 46.5112 62.3953C48.4736 62.683 50.4295 62.9643 52.4177 62.8479ZM45.0629 50.7439C45.1792 51.5133 44.7654 53.6535 45.3603 53.8928C47.2452 54.6642 49.1919 55.2752 51.1795 55.7194V50.3786L45.0629 50.7439ZM52.6925 50.1717C52.5988 51.9757 52.4791 53.6859 52.4533 55.4672C52.4533 55.5836 52.5535 55.7905 52.644 55.7905C55.9642 56.825 57.2962 52.9649 58.0397 50.4982C58.1303 50.0133 58.0591 49.884 57.5742 49.9001C55.9481 49.9907 54.3122 49.9971 52.6925 50.1717ZM79.4222 34.505L79.4383 34.4274C85.0636 34.6796 83.2758 26.0898 78.1872 27.9616C74.7248 29.8206 75.2647 34.2884 79.4222 34.505ZM24.6697 35.0126C24.4693 33.9102 24.2074 30.354 22.3452 31.4208C20.6706 32.8142 22.5004 34.6085 23.4315 35.8499C23.8582 36.4351 24.6083 35.5654 24.6697 35.0126ZM21.8118 5.02095V5.1826C23.9585 6.31735 24.7829 6.52748 26.9618 5.34101C26.9618 5.34101 26.9618 5.29575 26.9618 5.22139C25.2355 4.44226 23.5737 3.925 21.8118 5.02095ZM43.5078 51.2159C42.6091 51.3032 41.6263 51.0219 40.8375 51.3549C41.5552 52.105 42.6059 52.3927 43.5078 52.9714V51.2159ZM79.1829 36.1926C79.1603 35.8499 79.1829 35.6042 78.8596 35.546C78.462 35.4652 78.2131 35.546 78.1225 35.9049C78.1225 36.4092 77.4081 37.9384 78.1225 38.0451C79.073 38.3619 78.9469 36.6937 79.1829 36.1926ZM80.6571 25.8958C80.308 26.1157 79.6355 26.106 79.6323 26.5424C79.8554 26.62 80.1334 26.7881 80.3048 26.7137C80.5343 26.6168 80.683 26.3323 80.8511 26.1124C80.8608 26.0995 80.7283 25.9766 80.6571 25.8958Z" fill="black"/>
<path d="M54.6798 34.0174C52.2454 34.1855 48.9899 33.0475 49.0093 30.1702C48.5082 24.823 57.5506 24.7713 59.568 28.4148C60.9484 31.6121 57.8966 34.5217 54.6798 34.0174ZM56.1896 32.43C59.8137 32.2005 59.3514 27.5548 55.9374 27.5289C53.2832 27.5095 53.2153 32.569 56.1896 32.43ZM54.1949 32.9796C52.4233 31.0011 52.1323 29.0613 53.9492 27.0117C52.0094 26.627 50.0697 27.7197 49.9792 29.7823C49.866 30.7845 50.2184 31.722 51.2303 32.1973C52.2034 32.5949 53.1022 33.1219 54.1949 32.9796Z" fill="black"/>
<path d="M37.5153 33.9389C28.6798 33.8322 30.7715 23.5224 40.2956 26.3674C45.6267 28.4656 42.5619 34.6145 37.5153 33.9389ZM37.1629 30.0594C37.1612 30.4789 37.2729 30.8911 37.4862 31.2523C37.6538 31.5276 37.8759 31.7656 38.1389 31.9519C38.4018 32.1381 38.7001 32.2686 39.0154 32.3353C39.4724 32.4289 39.9464 32.3956 40.3858 32.2388C40.8252 32.0821 41.2133 31.808 41.508 31.4463C41.7913 31.0759 41.9646 30.6333 42.008 30.169C42.0515 29.7048 41.9633 29.2377 41.7537 28.8212C40.7224 26.8523 37.9259 27.3211 37.2955 29.3255C37.2166 29.5593 37.172 29.8032 37.1629 30.0497V30.0594ZM37.1112 32.8364C36.4533 32.0988 36.0764 31.1528 36.0469 30.1648C36.0173 29.1768 36.3369 28.21 36.9496 27.4343C37.1823 27.1304 37.1306 26.9978 36.7491 26.9752C31.4795 26.9138 31.861 33.163 37.1112 32.8267V32.8364Z" fill="black"/>
<path d="M46.4891 42.8905C38.4747 42.4411 42.3542 33.4278 42.4867 38.5972C42.3736 40.7309 44.8144 41.6846 46.599 41.7396C48.9008 41.7784 49.8771 39.4054 50.1552 37.4528C50.161 37.3892 50.1802 37.3276 50.2114 37.2719C50.2425 37.2162 50.2851 37.1677 50.3362 37.1295C50.5981 36.9355 50.8729 36.8579 50.9828 37.317C51.2285 40.0164 49.5474 43.0715 46.4891 42.8905Z" fill="black"/>
<path d="M55.1696 21.9199C56.1104 21.991 57.3001 22.0751 58.0081 22.657C58.0838 22.7202 58.1368 22.8064 58.1591 22.9025C58.1813 22.9985 58.1715 23.0992 58.1313 23.1892C58.091 23.2793 58.0225 23.3537 57.9361 23.4012C57.8496 23.4486 57.7501 23.4666 57.6525 23.4523C57.3471 23.39 57.0449 23.3123 56.7473 23.2195C56.2943 23.0458 55.8089 22.9729 55.3248 23.0058C54.8407 23.0388 54.3697 23.1768 53.9444 23.4103C53.6017 23.6204 52.8775 23.7562 52.6512 23.3844C52.5866 22.1786 54.2741 21.949 55.1696 21.9199Z" fill="black"/>
<path d="M37.1644 22.0684C37.701 21.9391 40.9986 22.7505 39.6925 23.4327C38.6386 23.507 37.6461 22.9122 36.6019 23.1837C32.1372 25.0168 34.5037 21.9455 37.1644 22.0684Z" fill="black"/>
<path d="M79.4888 33.5856C76.0199 33.5856 76.5372 28.7363 79.5503 28.6328C82.6345 28.7363 83.0256 33.6955 79.4888 33.5856ZM80.9339 31.2547C80.9339 29.1662 78.0664 29.5574 78.0017 31.4616C78.131 33.0263 81.0988 32.9714 80.9339 31.2385V31.2547Z" fill="black"/>
<path d="M87.9238 30.5502L95.2956 25.2579C95.2956 25.2579 94.5414 10.3225 95.6748 8.99728C96.8083 7.67202 98.8877 5.21332 102.65 5.40513C106.412 5.59694 168.638 5.59258 170.53 5.59258C172.422 5.59258 177.335 7.48456 177.148 16.1816C176.96 24.8786 176.956 48.7027 176.581 51.5407C176.206 54.3787 175.068 57.9708 169.017 57.4041C162.967 56.8374 103.596 57.4041 101.883 57.4041C100.169 57.4041 95.0776 56.4581 95.0776 51.3532C95.0776 46.2484 94.3191 37.3596 94.6983 35.8468C93.0331 34.3341 87.9238 31.3087 87.9238 30.5502Z" fill="white"/>
<path d="M135.964 4.50399C148.022 4.43715 160.083 4.4604 172.147 4.57374C176.777 4.57374 177.906 9.76144 178.041 13.4931C178.294 18.5587 178.412 23.62 178.176 28.69C178.033 36.3843 177.806 44.0787 177.575 51.7948C177.64 57.7672 172.025 58.5039 167.317 58.1595C152.857 58.1159 138.393 58.0811 123.941 58.5083C115.462 58.5083 106.887 58.8963 98.5127 57.3443C96.0584 56.8822 94.7723 55.4 94.4803 52.937C93.992 48.8391 94.1315 44.7282 94.1795 40.6173C93.9484 39.1351 94.9903 36.4148 93.4994 35.5691C83.73 30.3073 85.5391 30.8304 93.8743 25.2112C93.9684 25.1331 94.0459 25.0369 94.102 24.9283C94.1582 24.8197 94.1919 24.701 94.2012 24.579C94.3233 22.5476 94.441 20.5117 94.4977 18.4759C94.9336 12.8828 92.7539 5.52845 100.54 4.72196C112.336 4.36449 124.155 4.56938 135.964 4.50399ZM118.405 6.08646C113.356 6.00363 108.3 6.02978 103.247 6.11697C100.161 5.97311 96.6425 7.12835 96.2066 10.8295C95.7052 15.4984 96.2327 20.1848 96.0365 24.8668C95.9799 27.0465 91.3066 28.8687 89.6544 30.3858C87.6796 31.589 96.4376 33.372 95.7358 35.9571C95.7663 57.6756 93.8002 56.6817 115.963 56.5901C128.998 56.6686 142.556 56.4114 153.698 56.3896C158.08 56.5814 162.474 56.4419 166.864 56.3242C169.811 55.9624 174.345 56.8822 175.299 53.1637C176.267 41.2015 176.834 29.1346 176.367 17.1157C175.713 8.83288 176.738 6.03414 167.143 6.07774C151.689 6.11261 133.745 6.74037 118.405 6.08646Z" fill="black"/>
<path d="M108.514 19.238V20.6988H106.11V28.2617H104.3V20.6988H101.895V19.238H108.514ZM113.868 20.9962C114.411 20.9962 114.894 21.1168 115.316 21.3582C115.739 21.5909 116.066 21.9399 116.299 22.4053C116.54 22.8621 116.661 23.4137 116.661 24.0601V28.2617H114.851V24.3058C114.851 23.7369 114.709 23.3017 114.424 23C114.14 22.6898 113.752 22.5346 113.261 22.5346C112.761 22.5346 112.364 22.6898 112.071 23C111.787 23.3017 111.645 23.7369 111.645 24.3058V28.2617H109.835V18.695H111.645V21.9916C111.877 21.6814 112.188 21.44 112.576 21.2677C112.963 21.0867 113.394 20.9962 113.868 20.9962ZM125.04 24.5255C125.04 24.7841 125.023 25.0168 124.988 25.2236H119.752C119.795 25.7408 119.976 26.1458 120.295 26.4389C120.614 26.7319 121.006 26.8784 121.472 26.8784C122.144 26.8784 122.622 26.5897 122.907 26.0122H124.859C124.652 26.7017 124.256 27.2706 123.67 27.7187C123.083 28.1583 122.364 28.3781 121.511 28.3781C120.821 28.3781 120.201 28.2272 119.649 27.9256C119.106 27.6153 118.679 27.1801 118.369 26.6199C118.067 26.0597 117.917 25.4133 117.917 24.6807C117.917 23.9395 118.067 23.2888 118.369 22.7285C118.671 22.1683 119.093 21.7374 119.636 21.4357C120.179 21.1341 120.804 20.9833 121.511 20.9833C122.191 20.9833 122.799 21.1298 123.333 21.4228C123.876 21.7158 124.294 22.1338 124.587 22.6768C124.889 23.2112 125.04 23.8274 125.04 24.5255ZM123.165 24.0084C123.157 23.543 122.989 23.1724 122.661 22.8966C122.334 22.6122 121.933 22.47 121.459 22.47C121.011 22.47 120.631 22.6079 120.321 22.8837C120.02 23.1509 119.834 23.5258 119.765 24.0084H123.165ZM135.582 19.238V20.6988H133.178V28.2617H131.368V20.6988H128.963V19.238H135.582ZM138.713 22.2114C138.945 21.8322 139.247 21.5349 139.618 21.3194C139.997 21.1039 140.428 20.9962 140.911 20.9962V22.8966H140.432C139.863 22.8966 139.432 23.0302 139.139 23.2974C138.855 23.5645 138.713 24.03 138.713 24.6936V28.2617H136.903V21.0996H138.713V22.2114ZM148.891 21.0996V28.2617H147.068V27.3568C146.835 27.667 146.529 27.9127 146.15 28.0937C145.78 28.266 145.375 28.3522 144.935 28.3522C144.375 28.3522 143.879 28.2359 143.448 28.0032C143.017 27.7618 142.677 27.4128 142.427 26.956C142.186 26.4906 142.065 25.939 142.065 25.3012V21.0996H143.875V25.0426C143.875 25.6115 144.017 26.051 144.301 26.3613C144.586 26.663 144.974 26.8138 145.465 26.8138C145.965 26.8138 146.357 26.663 146.641 26.3613C146.926 26.051 147.068 25.6115 147.068 25.0426V21.0996H148.891ZM152.784 22.5863V26.051C152.784 26.2924 152.84 26.469 152.952 26.5811C153.073 26.6845 153.271 26.7362 153.547 26.7362H154.387V28.2617H153.249C151.724 28.2617 150.961 27.5205 150.961 26.0381V22.5863H150.108V21.0996H150.961V19.3285H152.784V21.0996H154.387V22.5863H152.784ZM159.722 20.9962C160.265 20.9962 160.748 21.1168 161.17 21.3582C161.593 21.5909 161.92 21.9399 162.153 22.4053C162.394 22.8621 162.515 23.4137 162.515 24.0601V28.2617H160.705V24.3058C160.705 23.7369 160.563 23.3017 160.278 23C159.994 22.6898 159.606 22.5346 159.115 22.5346C158.615 22.5346 158.218 22.6898 157.925 23C157.641 23.3017 157.499 23.7369 157.499 24.3058V28.2617H155.689V18.695H157.499V21.9916C157.731 21.6814 158.042 21.44 158.43 21.2677C158.817 21.0867 159.248 20.9962 159.722 20.9962ZM165.037 28.3522C164.71 28.3522 164.438 28.2531 164.223 28.0549C164.016 27.848 163.913 27.5938 163.913 27.2921C163.913 26.9905 164.016 26.7405 164.223 26.5423C164.438 26.3354 164.71 26.232 165.037 26.232C165.356 26.232 165.619 26.3354 165.826 26.5423C166.033 26.7405 166.136 26.9905 166.136 27.2921C166.136 27.5938 166.033 27.848 165.826 28.0549C165.619 28.2531 165.356 28.3522 165.037 28.3522Z" fill="#E53C3C"/>
<path d="M107.907 42.5423H104.313L103.718 44.2617H101.818L105.062 35.2251H107.17L110.415 44.2617H108.501L107.907 42.5423ZM107.415 41.0944L106.11 37.3194L104.804 41.0944H107.415ZM113.438 34.695V44.2617H111.628V34.695H113.438ZM125.154 37.0996L123.06 44.2617H121.108L119.802 39.2586L118.497 44.2617H116.531L114.424 37.0996H116.26L117.527 42.5552L118.897 37.0996H120.811L122.155 42.5423L123.422 37.0996H125.154ZM125.668 40.6548C125.668 39.9308 125.811 39.2888 126.095 38.7285C126.388 38.1683 126.78 37.7374 127.271 37.4357C127.771 37.1341 128.327 36.9833 128.939 36.9833C129.473 36.9833 129.939 37.091 130.335 37.3065C130.74 37.5219 131.064 37.7934 131.305 38.1209V37.0996H133.128V44.2617H131.305V43.2146C131.072 43.5507 130.749 43.8308 130.335 44.0549C129.93 44.2703 129.461 44.3781 128.926 44.3781C128.323 44.3781 127.771 44.2229 127.271 43.9127C126.78 43.6024 126.388 43.1671 126.095 42.6069C125.811 42.0381 125.668 41.3874 125.668 40.6548ZM131.305 40.6807C131.305 40.2411 131.219 39.8662 131.046 39.5559C130.874 39.237 130.641 38.9957 130.348 38.832C130.055 38.6596 129.741 38.5734 129.404 38.5734C129.068 38.5734 128.758 38.6553 128.474 38.819C128.189 38.9828 127.957 39.2241 127.776 39.543C127.603 39.8533 127.517 40.2239 127.517 40.6548C127.517 41.0857 127.603 41.465 127.776 41.7925C127.957 42.1114 128.189 42.357 128.474 42.5294C128.767 42.7017 129.077 42.7879 129.404 42.7879C129.741 42.7879 130.055 42.7061 130.348 42.5423C130.641 42.3699 130.874 42.1286 131.046 41.8183C131.219 41.4994 131.305 41.1202 131.305 40.6807ZM141.747 37.0996L137.313 47.6489H135.387L136.938 44.0807L134.068 37.0996H136.098L137.946 42.1027L139.821 37.0996H141.747ZM145.464 44.3781C144.878 44.3781 144.352 44.2746 143.886 44.0678C143.421 43.8523 143.05 43.5636 142.775 43.2016C142.507 42.8396 142.361 42.4389 142.335 41.9993H144.158C144.192 42.2751 144.326 42.5035 144.559 42.6845C144.8 42.8655 145.097 42.956 145.451 42.956C145.796 42.956 146.063 42.887 146.252 42.7491C146.451 42.6112 146.55 42.4346 146.55 42.2191C146.55 41.9864 146.429 41.814 146.188 41.702C145.955 41.5813 145.58 41.452 145.063 41.3141C144.529 41.1849 144.089 41.0513 143.744 40.9134C143.408 40.7755 143.115 40.5643 142.865 40.2799C142.624 39.9955 142.503 39.612 142.503 39.1293C142.503 38.7328 142.615 38.3709 142.839 38.0434C143.072 37.7158 143.4 37.4573 143.822 37.2677C144.253 37.0781 144.757 36.9833 145.334 36.9833C146.188 36.9833 146.869 37.1987 147.377 37.6297C147.886 38.052 148.166 38.6251 148.217 39.3491H146.485C146.459 39.0647 146.338 38.8406 146.123 38.6768C145.916 38.5045 145.636 38.4183 145.283 38.4183C144.955 38.4183 144.701 38.4786 144.52 38.5993C144.348 38.7199 144.261 38.888 144.261 39.1034C144.261 39.3448 144.382 39.5301 144.623 39.6594C144.865 39.78 145.24 39.905 145.748 40.0343C146.265 40.1635 146.692 40.2971 147.028 40.435C147.364 40.5729 147.653 40.7884 147.894 41.0814C148.144 41.3658 148.273 41.7451 148.282 42.2191C148.282 42.6328 148.166 43.0034 147.933 43.3309C147.709 43.6584 147.381 43.917 146.95 44.1066C146.528 44.2876 146.033 44.3781 145.464 44.3781ZM150.569 44.3522C150.242 44.3522 149.97 44.2531 149.755 44.0549C149.548 43.848 149.445 43.5938 149.445 43.2921C149.445 42.9905 149.548 42.7405 149.755 42.5423C149.97 42.3354 150.242 42.232 150.569 42.232C150.888 42.232 151.151 42.3354 151.358 42.5423C151.565 42.7405 151.668 42.9905 151.668 43.2921C151.668 43.5938 151.565 43.848 151.358 44.0549C151.151 44.2531 150.888 44.3522 150.569 44.3522Z" fill="#414042"/>
</svg>
