<svg width="17" height="12" viewBox="0 0 17 12" fill="none" xmlns="http://www.w3.org/2000/svg">
<path d="M1.94531 5.69727C2.79512 6.05519 3.64493 6.41311 4.46988 6.76057C4.40795 7.15736 4.3278 7.52993 4.29556 7.90656C4.23505 8.61315 4.35637 9.29792 4.61687 9.95733C4.68921 10.1401 4.68788 10.3134 4.54632 10.4612C4.49415 10.5156 4.4236 10.5592 4.35351 10.5887C3.7981 10.8188 3.24159 11.0454 2.68425 11.27C2.39509 11.3866 2.16537 11.2835 2.05 10.9914C1.45008 9.47225 1.35269 7.92001 1.7478 6.3364C1.78751 6.17667 1.83379 6.01845 1.87704 5.85937C1.89979 5.80534 1.92255 5.7513 1.94531 5.69727Z" fill="#FF3338"/>
<path d="M14.7207 5.69727C13.8756 6.06609 13.0304 6.43491 12.21 6.79294C12.277 7.1889 12.362 7.56041 12.3991 7.9366C12.4686 8.64236 12.3562 9.32863 12.1041 9.99134C12.0342 10.175 12.0377 10.3483 12.1812 10.4942C12.234 10.5479 12.3051 10.5907 12.3756 10.6192C12.9339 10.8422 13.4933 11.0616 14.0535 11.2791C14.3441 11.3919 14.5725 11.2858 14.6841 10.9923C15.2644 9.46557 15.3419 7.9122 14.9264 6.3338C14.8847 6.17461 14.8363 6.01699 14.7911 5.85848C14.7676 5.80474 14.7442 5.751 14.7207 5.69727Z" fill="#17B518"/>
<path d="M2.11138 5.18785C2.27566 4.92367 2.43006 4.65277 2.60589 4.39642C3.34478 3.31983 4.30712 2.50022 5.47819 1.92418C5.50009 1.91347 5.51954 1.89749 5.53667 1.88604C5.88737 2.75225 6.23191 3.60187 6.58151 4.46465C5.73863 4.91 5.07595 5.55892 4.60045 6.42707C3.74812 6.06808 2.89579 5.7091 2.0431 5.34996C2.06586 5.29593 2.08862 5.24189 2.11138 5.18785Z" fill="#FF9000"/>
<path d="M14.624 5.38535C13.7603 5.73711 12.9115 6.08283 12.0528 6.43286C11.6076 5.58962 10.9548 4.93 10.1003 4.46237C10.4595 3.60968 10.8166 2.76167 11.1777 1.9043C12.7259 2.68274 13.8705 3.84306 14.624 5.38535Z" fill="#49E74A"/>
<path d="M5.91459 1.72843C7.54341 1.18741 9.17322 1.19692 10.8152 1.75745C10.4566 2.60906 10.0999 3.45599 9.73829 4.31444C8.81413 4.03336 7.88233 4.02518 6.95964 4.2995C6.60959 3.4378 6.26418 2.58824 5.91459 1.72843Z" fill="#FEEC20"/>
<path d="M9.29559 9.2923C8.92278 9.66149 8.36564 9.76591 7.87913 9.55734C7.3952 9.34979 7.0621 8.8589 7.11186 8.32856C7.16832 7.72655 7.25495 7.12532 7.36632 6.53078C7.55479 5.524 7.77342 4.52262 7.97813 3.51867C8.00855 3.36862 8.0694 3.24332 8.2161 3.17397C8.46412 3.05691 8.73561 3.19536 8.79852 3.48206C8.92485 4.06009 9.05814 4.63735 9.16514 5.21925C9.342 6.18195 9.50649 7.14672 9.66299 8.11277C9.73466 8.55983 9.62509 8.96383 9.29559 9.2923Z" fill="black"/>
</svg>
