<svg width="30" height="30" viewBox="0 0 30 30" fill="none" xmlns="http://www.w3.org/2000/svg">
<path d="M25.4297 29.9995C24.6486 29.9995 23.867 29.9995 23.0859 29.9995C23.0859 29.1845 23.0859 28.3694 23.0859 27.5573C17.7129 27.5573 12.382 27.5573 7.03125 27.5573C7.03125 28.3835 7.03125 29.1915 7.03125 29.9995C6.2502 29.9995 5.46855 29.9995 4.6875 29.9995C4.6875 29.1856 4.6875 28.3718 4.6875 27.538C4.06641 27.538 3.4834 27.5456 2.90098 27.5362C1.50234 27.514 0.343945 26.5483 0.05625 25.1778C0.0451172 25.1233 0.0193359 25.0718 0 25.019C0 20.1558 0 15.2925 0 10.4292C0.0123047 10.4146 0.0310547 10.4017 0.0357422 10.3847C0.455859 8.71358 1.48359 7.90967 3.20273 7.90967C8.55 7.90967 13.8979 7.90967 19.2451 7.90967C21.8408 7.90967 24.4365 7.89971 27.0322 7.91377C28.2932 7.92081 29.202 8.52608 29.7463 9.66045C29.8623 9.90186 29.9174 10.172 30.0006 10.4292C30.0006 15.2925 30.0006 20.1558 30.0006 25.019C29.9801 25.0812 29.9543 25.1427 29.9396 25.2065C29.7328 26.0896 29.24 26.7581 28.4426 27.1935C27.9891 27.4413 27.4986 27.5438 26.9824 27.5397C26.4691 27.5351 25.957 27.5386 25.4297 27.5386C25.4297 28.3853 25.4297 29.1927 25.4297 29.9995ZM14.9707 25.1948C18.9246 25.1948 22.8779 25.1948 26.8318 25.1948C27.4793 25.1948 27.6562 25.0214 27.6562 24.3868C27.6562 19.9448 27.6562 15.5034 27.6562 11.0614C27.6562 10.4356 27.4775 10.254 26.8611 10.254C18.9539 10.254 11.0461 10.254 3.13887 10.254C2.52246 10.2534 2.34375 10.4351 2.34375 11.0608C2.34375 15.5028 2.34375 19.9442 2.34375 24.3862C2.34375 25.0208 2.52129 25.1948 3.16816 25.1948C7.10215 25.1948 11.0361 25.1948 14.9707 25.1948Z" fill="#B338FF"/>
<path d="M8.67149 0C8.73653 0.0679687 8.79747 0.140625 8.86719 0.20332C9.67286 0.926953 9.94356 2.1252 9.39747 3.05625C8.72364 4.20527 7.95899 5.30156 7.23536 6.41836C6.50118 6.03926 6.01251 5.00273 6.18067 4.13027C6.24571 3.79336 6.36583 3.44531 6.54688 3.15645C7.21661 2.0918 7.92149 1.05 8.6129 0C8.63223 0 8.65215 0 8.67149 0Z" fill="#B338FF"/>
<path d="M15.7027 0C15.7678 0.0679687 15.8287 0.140625 15.8984 0.20332C16.7041 0.926953 16.9748 2.1252 16.4287 3.05625C15.7549 4.20527 14.9902 5.30156 14.2666 6.41836C13.5324 6.03926 13.0438 5.00273 13.2119 4.13027C13.277 3.79336 13.3971 3.44531 13.5781 3.15645C14.2479 2.0918 14.9527 1.05 15.6441 0C15.6635 0 15.6834 0 15.7027 0Z" fill="#B338FF"/>
<path d="M22.734 0C22.799 0.0679687 22.86 0.140625 22.9297 0.20332C23.7354 0.926953 24.0061 2.1252 23.46 3.05625C22.7861 4.20527 22.0215 5.30156 21.2979 6.41836C20.5637 6.03926 20.075 5.00273 20.2432 4.13027C20.3082 3.79336 20.4283 3.44531 20.6094 3.15645C21.2791 2.0918 21.984 1.05 22.6754 0C22.6947 0 22.7147 0 22.734 0Z" fill="#B338FF"/>
<path d="M4.70898 12.6104C5.48418 12.6104 6.23418 12.6104 7.00762 12.6104C7.00762 16.0187 7.00762 19.4189 7.00762 22.8355C6.24707 22.8355 5.48945 22.8355 4.70898 22.8355C4.70898 19.4383 4.70898 16.0381 4.70898 12.6104Z" fill="#B338FF"/>
<path d="M9.27148 22.8371C9.27148 19.4205 9.27148 16.0268 9.27148 12.6172C10.0438 12.6172 10.8008 12.6172 11.5795 12.6172C11.5795 16.0215 11.5795 19.4223 11.5795 22.8371C10.8137 22.8371 10.0555 22.8371 9.27148 22.8371Z" fill="#B338FF"/>
<path d="M16.1498 22.8389C15.3758 22.8389 14.6182 22.8389 13.8447 22.8389C13.8447 19.4287 13.8447 16.0309 13.8447 12.6172C14.6141 12.6172 15.3705 12.6172 16.1498 12.6172C16.1498 16.0162 16.1498 19.4146 16.1498 22.8389Z" fill="#B338FF"/>
<path d="M18.4775 12.6111C19.2557 12.6111 20.0057 12.6111 20.7779 12.6111C20.7779 16.0207 20.7779 19.4208 20.7779 22.8369C20.0145 22.8369 19.2568 22.8369 18.4775 22.8369C18.4775 19.4361 18.4775 16.0353 18.4775 12.6111Z" fill="#B338FF"/>
<path d="M23.1064 12.6111C23.8846 12.6111 24.6346 12.6111 25.4068 12.6111C25.4068 16.0207 25.4068 19.4208 25.4068 22.8369C24.6434 22.8369 23.8857 22.8369 23.1064 22.8369C23.1064 19.4361 23.1064 16.0353 23.1064 12.6111Z" fill="#B338FF"/>
</svg>
