<svg width="19" height="24" viewBox="0 0 19 24" fill="none" xmlns="http://www.w3.org/2000/svg">
<path d="M0.840756 12.5649C0.840756 12.4672 0.840756 12.382 0.840756 12.2968C0.840756 9.26629 0.837963 6.23577 0.842152 3.20595C0.844246 1.57445 1.85372 0.307367 3.42099 0.0860643C4.32924 -0.0423891 5.26332 -0.0828829 6.13108 0.370893C6.33074 0.474912 6.41801 0.589404 6.41452 0.829556C6.39916 1.93537 6.40265 3.04119 6.40963 4.14701C6.41382 4.76065 6.90808 5.15997 7.46309 5.01546C7.83588 4.91842 8.07603 4.60357 8.07813 4.18051C8.08301 3.06562 8.0893 1.95143 8.07254 0.836539C8.06905 0.593595 8.14794 0.445594 8.35947 0.382065C8.78043 0.256404 9.20628 0.0623268 9.63283 0.0539494C11.4787 0.0176474 13.3259 0.0162521 15.1717 0.0462711C16.776 0.0721014 18.0842 1.3671 18.1031 2.96719C18.1338 5.55301 18.1149 8.13953 18.117 10.7261C18.1177 11.3341 18.117 11.9422 18.117 12.5649C12.359 12.5649 6.62325 12.5649 0.840756 12.5649Z" fill="black"/>
<path d="M12.5512 18.1453C12.5512 19.0431 12.5561 19.9038 12.5485 20.7653C12.5457 21.025 12.5331 21.2903 12.48 21.5437C12.1498 23.1201 10.7431 24.1421 9.14025 23.9843C7.61835 23.8342 6.43784 22.5274 6.41201 20.9482C6.39805 20.121 6.40922 19.2937 6.40922 18.4664C6.40922 18.3715 6.40922 18.2772 6.40922 18.146C6.28565 18.146 6.18372 18.146 6.0825 18.146C4.81053 18.146 3.53856 18.1537 2.26729 18.1432C1.14332 18.1341 0.283245 17.4381 0.0500746 16.3728C-0.238946 15.0533 0.759361 13.7555 2.11161 13.6934C2.18142 13.6899 2.25124 13.6899 2.32035 13.6899C7.09407 13.6899 11.8678 13.6885 16.6415 13.6906C17.7955 13.6913 18.6744 14.3824 18.9111 15.4652C19.2008 16.7916 18.2095 18.1013 16.8509 18.1334C15.5364 18.1648 14.2204 18.1439 12.9052 18.1453C12.8012 18.146 12.6978 18.1453 12.5512 18.1453Z" fill="black"/>
</svg>
