<svg width="11" height="9" viewBox="0 0 11 9" fill="none" xmlns="http://www.w3.org/2000/svg">
<path d="M4.00258 5.34021C5.62377 3.7183 7.22709 2.11712 8.82612 0.513088C9.12934 0.209158 9.47546 0.0489683 9.90955 0.130493C10.3408 0.212018 10.6375 0.461599 10.7791 0.873513C10.9193 1.28328 10.8471 1.66516 10.5632 1.99841C10.5052 2.06635 10.4416 2.12857 10.378 2.1915C8.56796 4.00149 6.75725 5.8122 4.94655 7.62219C4.29792 8.2701 3.69221 8.27153 3.04788 7.62791C2.15182 6.73257 1.25076 5.84223 0.362567 4.93902C-0.280335 4.28468 -0.0321856 3.25346 0.822394 3.01103C1.27293 2.88374 1.66482 3.01032 1.99521 3.34214C2.59306 3.94285 3.19305 4.5407 3.79304 5.13998C3.85597 5.20291 3.92105 5.26226 4.00258 5.34021Z" fill="#B338FF"/>
</svg>
