<svg width="14" height="14" viewBox="0 0 14 14" fill="none" xmlns="http://www.w3.org/2000/svg">
<path d="M6.36491 11.8284C6.55158 12.6994 6.32811 13.3425 5.71468 13.74C5.15331 14.104 4.42546 14.0842 3.88473 13.6907C3.29598 13.2617 3.10258 12.6011 3.33143 11.7687C2.83513 11.6094 2.46268 11.3016 2.26119 10.8107C2.12971 10.4903 2.10817 10.1573 2.19254 9.823C2.2953 9.41555 2.52685 9.09605 2.87866 8.86315C3.23137 8.62936 3.62626 8.58269 4.0557 8.60737C4.02922 8.52749 4.01127 8.46467 3.98839 8.40409C3.0954 6.02174 2.20017 3.64163 1.31301 1.25838C1.25737 1.1085 1.18646 1.06318 1.03659 1.07485C0.869656 1.08786 0.700481 1.08158 0.532653 1.07664C0.230652 1.06767 -0.000448086 0.831631 6.52382e-07 0.539053C0.000449391 0.24513 0.230203 0.00909342 0.533999 0.0041573C0.892093 -0.0016763 1.25063 -0.00122756 1.60918 0.00460603C1.89323 0.00909342 2.05298 0.175575 2.14811 0.430908C2.61615 1.68782 3.08867 2.94339 3.55939 4.19941C4.0889 5.61249 4.62021 7.02512 5.14524 8.43999C5.19101 8.56294 5.2453 8.60737 5.38217 8.60692C7.49887 8.60154 9.61601 8.60333 11.7327 8.60333C11.7875 8.60333 11.8427 8.60333 11.9091 8.60333C12.2079 6.80972 12.505 5.02958 12.8052 3.22789C12.7294 3.22789 12.6643 3.22789 12.5992 3.22789C10.0513 3.22789 7.50291 3.22789 4.95497 3.22745C4.88227 3.22745 4.80823 3.23059 4.73733 3.21712C4.46674 3.16552 4.27872 2.91378 4.30206 2.64274C4.32494 2.37753 4.54213 2.16932 4.81407 2.15406C4.86432 2.15137 4.91503 2.15317 4.96529 2.15317C7.74837 2.15317 10.5319 2.15317 13.315 2.15317C13.8207 2.15317 14.0312 2.39728 13.9481 2.89538C13.6004 4.99188 13.2512 7.08794 12.9017 9.18445C12.846 9.51876 12.6419 9.67851 12.2734 9.67851C9.47915 9.67896 6.68441 9.67851 3.89011 9.67896C3.81742 9.67896 3.74338 9.67492 3.67248 9.68659C3.40099 9.73191 3.20848 9.97916 3.22643 10.2524C3.24348 10.5163 3.46022 10.7326 3.72857 10.7519C3.78421 10.7559 3.8403 10.7537 3.8964 10.7537C5.27402 10.7537 6.65165 10.7523 8.02928 10.7546C8.43853 10.755 8.70418 11.1217 8.56417 11.4842C8.4825 11.6965 8.28685 11.8271 8.03691 11.8284C7.54419 11.8307 7.05148 11.8289 6.55831 11.8289C6.49773 11.8284 6.4367 11.8284 6.36491 11.8284ZM5.37499 12.3588C5.37185 12.0685 5.12549 11.8266 4.83516 11.8293C4.54123 11.832 4.30206 12.0716 4.30161 12.3647C4.30071 12.664 4.54976 12.9085 4.84952 12.9022C5.14164 12.8964 5.37768 12.6523 5.37499 12.3588Z" fill="white"/>
<path d="M11.2887 13.9777C10.398 13.975 9.67729 13.2534 9.67773 12.3644C9.67818 11.4768 10.4056 10.7508 11.2914 10.7539C12.188 10.7571 12.9078 11.4858 12.9028 12.3846C12.8979 13.2601 12.1687 13.9799 11.2887 13.9777ZM11.8272 12.3667C11.8272 12.0732 11.5889 11.8322 11.2954 11.8291C10.9961 11.826 10.7498 12.0732 10.7534 12.3725C10.757 12.6651 10.9993 12.9029 11.2932 12.902C11.584 12.9016 11.8276 12.6575 11.8272 12.3667Z" fill="white"/>
</svg>
