<svg width="21" height="18" viewBox="0 0 21 18" fill="none" xmlns="http://www.w3.org/2000/svg">
<path d="M21.0005 3.53776C20.6748 4.06656 20.3444 4.59232 20.0285 5.12619C19.9725 5.22091 19.9401 5.35513 19.9566 5.46201C20.2864 7.58937 20.0768 9.6519 19.1952 11.6319C18.7 12.7447 18.0121 13.7354 17.204 14.6507C15.5118 16.5683 13.3285 17.5358 10.82 17.8564C7.86198 18.2348 4.99078 17.8665 2.21462 16.7968C1.67315 16.5881 1.15583 16.3252 0.719166 15.9347C0.44792 15.6926 0.374457 15.451 0.479771 15.181C0.584056 14.9141 0.811636 14.79 1.17227 14.7839C1.82778 14.7733 2.48535 14.7844 3.13778 14.7327C4.22636 14.6466 5.23017 14.3078 6.11892 13.6103C6.00076 13.5774 5.90367 13.551 5.80709 13.5237C4.65532 13.1995 3.56725 12.7447 2.62765 11.994C2.42627 11.8329 2.23311 11.6602 2.05125 11.4789C1.68394 11.1127 1.82573 10.5743 2.32507 10.4248C2.53312 10.3625 2.74478 10.3129 2.97595 10.2516C2.65231 10.0434 2.34202 9.86564 2.05485 9.65645C0.904106 8.81817 0.250136 7.67801 0.0091996 6.30029C-0.0668315 5.86621 0.340551 5.51317 0.782868 5.617C1.00634 5.66968 1.22518 5.74312 1.4579 5.81049C1.34591 5.48429 1.21851 5.18241 1.13836 4.86888C0.834754 3.68212 0.980137 2.55765 1.67058 1.52386C2.03173 0.983407 2.55521 0.99759 2.87578 1.55881C3.50355 2.65693 4.29263 3.62032 5.29593 4.40593C6.59308 5.4225 8.06542 6.03538 9.7083 6.24913C9.75557 6.25521 9.80283 6.26382 9.85009 6.26939C9.89684 6.27496 9.94359 6.278 9.99753 6.28256C10.015 5.94826 10.0171 5.61953 10.052 5.29385C10.2667 3.284 11.6471 1.37798 13.8088 0.932756C14.7767 0.733696 15.7112 0.836012 16.6061 1.24983C16.736 1.31011 16.8362 1.31416 16.9667 1.24933C17.7666 0.855259 18.569 0.467269 19.3745 0.084851C19.8086 -0.1213 20.2417 0.0610448 20.3121 0.492595C20.3367 0.645056 20.2874 0.827908 20.2191 0.972771C19.9509 1.53956 19.6612 2.09673 19.3797 2.65794C19.3504 2.71619 19.3242 2.77596 19.2821 2.86562C19.5877 2.84232 19.861 2.83776 20.1287 2.79673C20.5433 2.73341 20.8356 2.86663 20.9994 3.25361C21.0005 3.34883 21.0005 3.44304 21.0005 3.53776ZM18.2983 2.02632C18.2865 2.0167 18.2741 2.00707 18.2623 1.99745C17.913 2.16511 17.5554 2.31858 17.2169 2.50548C16.8866 2.68783 16.5973 2.662 16.2763 2.47459C15.5879 2.07393 14.8394 1.98428 14.0606 2.14333C12.5548 2.45129 11.5418 3.78089 11.3178 5.24725C11.2418 5.74414 11.2582 6.239 11.3497 6.73488C11.4421 7.23633 11.1683 7.60608 10.7049 7.56607C10.0129 7.50579 9.31274 7.45261 8.63719 7.30369C6.25659 6.77945 4.31934 5.54102 2.80232 3.66034C2.65128 3.47343 2.50692 3.28096 2.33791 3.06316C2.19664 3.64362 2.23157 4.18053 2.39134 4.71135C2.53929 5.20318 2.79769 5.63524 3.14754 6.01462C3.33094 6.21368 3.40902 6.4411 3.30268 6.70196C3.20045 6.95268 2.9965 7.0707 2.73194 7.09856C2.56908 7.11578 2.40675 7.13857 2.24338 7.14414C2.01683 7.15225 1.79028 7.14617 1.55859 7.14617C1.57811 7.18922 1.6002 7.24443 1.62692 7.29812C2.03019 8.10145 2.66207 8.68395 3.46656 9.07548C3.87394 9.27353 4.31472 9.40624 4.74162 9.56427C4.98616 9.65493 5.1449 9.81499 5.17829 10.0743C5.21271 10.3423 5.09917 10.5454 4.87262 10.6902C4.79813 10.7379 4.72159 10.7829 4.64402 10.8245C4.3553 10.9785 4.06505 11.1309 3.75116 11.2971C3.97823 11.4282 4.1791 11.5559 4.38972 11.6643C5.34371 12.1551 6.36139 12.4468 7.42326 12.5973C7.71197 12.6383 7.95137 12.7442 8.05 13.039C8.14556 13.3246 8.02329 13.5424 7.82859 13.7486C6.6948 14.9516 5.3211 15.7017 3.65972 15.917C3.62736 15.921 3.59756 15.9433 3.54362 15.9671C4.83563 16.3911 6.13484 16.622 7.45973 16.7213C8.62948 16.8089 9.79564 16.7755 10.9546 16.5932C12.2764 16.385 13.5227 15.9712 14.6503 15.2413C15.555 14.6558 16.2742 13.8833 16.9153 13.0384C17.7096 11.9925 18.2726 10.8346 18.588 9.56072C18.9281 8.18857 18.9024 6.81086 18.682 5.42858C18.6373 5.14898 18.6743 4.89572 18.8397 4.65918C18.9538 4.49609 19.0514 4.32235 19.1726 4.12785C18.8279 4.15115 18.5223 4.18255 18.2161 4.18863C17.895 4.19522 17.6279 3.97893 17.6073 3.67806C17.597 3.52611 17.6428 3.35744 17.7075 3.21612C17.893 2.81344 18.1005 2.42191 18.2983 2.02632Z" fill="black"/>
</svg>
