<svg width="26" height="20" viewBox="0 0 26 20" fill="none" xmlns="http://www.w3.org/2000/svg">
<path d="M5.10569 11.4026C5.28347 11.4115 5.36923 11.4204 5.45588 11.4204C9.88772 11.4213 14.3205 11.4285 18.7523 11.4177C20.9311 11.4124 22.6374 9.95804 23.0171 7.81403C23.0671 7.53085 23.068 7.23605 23.0689 6.94661C23.0734 5.1376 23.0662 3.32949 23.0734 1.52048C23.076 0.608389 23.688 -0.0151594 24.5393 2.72625e-05C25.262 0.012534 25.9159 0.566402 25.9186 1.28822C25.9276 3.5421 26.0026 5.80403 25.8445 8.04809C25.6238 11.1864 22.8295 13.895 19.6939 14.2201C19.3062 14.2603 18.9149 14.2818 18.5254 14.2827C14.1936 14.2871 9.86181 14.2854 5.53003 14.2854C5.41121 14.2854 5.2924 14.2854 5.11016 14.2854C5.2254 14.4122 5.29419 14.4926 5.36923 14.5677C6.36351 15.5628 7.36672 16.5491 8.34939 17.555C9.13106 18.3563 8.80142 19.6436 7.74639 19.9402C7.1684 20.1028 6.67886 19.9259 6.25541 19.5007C4.66528 17.9016 3.06799 16.3088 1.47339 14.7151C1.20449 14.4471 0.932921 14.1817 0.663133 13.9146C0.0369049 13.2938 0.0324382 12.421 0.652413 11.8019C2.50966 9.94911 4.36958 8.09901 6.22326 6.24176C6.62079 5.84334 7.07014 5.62179 7.63651 5.7415C8.16894 5.85406 8.53699 6.17923 8.70673 6.69736C8.88629 7.24498 8.75497 7.73899 8.35922 8.14903C7.84019 8.68682 7.30508 9.21032 6.77534 9.73917C6.24112 10.2734 5.70333 10.8076 5.10569 11.4026Z" fill="black"/>
</svg>
